<svg id="svg" version="1.1" xmlns="http://www.w3.org/2000/svg" xmlns:xlink="http://www.w3.org/1999/xlink" width="400" height="400" viewBox="0, 0, 400,400"><g id="svgg"><path id="path0" d="M28.322 0.435 C 28.235 0.695,27.088 0.863,25.488 0.850 C 23.077 0.832,22.800 0.910,22.800 1.615 C 22.800 2.438,22.327 2.580,20.100 2.427 C 19.022 2.353,18.800 2.479,18.800 3.169 C 18.800 3.826,18.548 4.000,17.600 4.000 C 16.667 4.000,16.400 4.178,16.400 4.800 C 16.400 5.448,16.133 5.600,15.000 5.600 C 13.896 5.600,13.600 5.759,13.600 6.353 C 13.600 6.770,13.243 7.200,12.800 7.316 C 12.360 7.431,12.000 7.812,12.000 8.163 C 12.000 8.513,11.713 8.800,11.363 8.800 C 11.012 8.800,10.631 9.160,10.516 9.600 C 10.401 10.040,10.041 10.400,9.716 10.400 C 9.391 10.400,9.031 10.760,8.916 11.200 C 8.801 11.640,8.441 12.000,8.116 12.000 C 7.791 12.000,7.431 12.360,7.316 12.800 C 7.200 13.243,6.770 13.600,6.353 13.600 C 5.759 13.600,5.600 13.896,5.600 15.000 C 5.600 16.133,5.448 16.400,4.800 16.400 C 4.178 16.400,4.000 16.667,4.000 17.600 C 4.000 18.548,3.826 18.800,3.169 18.800 C 2.479 18.800,2.353 19.022,2.427 20.100 C 2.580 22.331,2.438 22.800,1.609 22.800 C 0.903 22.800,0.822 23.065,0.853 25.285 C 0.874 26.781,0.712 27.829,0.444 27.919 C 0.125 28.025,0.000 35.302,0.000 53.833 L 0.000 79.600 200.000 79.600 L 400.000 79.600 400.000 53.800 C 400.000 36.867,399.863 28.000,399.600 28.000 C 399.374 28.000,399.200 26.867,399.200 25.400 C 399.200 23.067,399.118 22.800,398.400 22.800 C 397.699 22.800,397.600 22.533,397.600 20.637 C 397.600 18.672,397.527 18.494,396.800 18.684 C 396.126 18.860,396.000 18.696,396.000 17.647 C 396.000 16.667,395.829 16.400,395.200 16.400 C 394.552 16.400,394.400 16.133,394.400 15.000 C 394.400 13.896,394.241 13.600,393.647 13.600 C 393.230 13.600,392.800 13.243,392.684 12.800 C 392.569 12.360,392.188 12.000,391.837 12.000 C 391.152 12.000,390.935 10.558,391.587 10.333 C 391.834 10.248,391.836 9.982,391.593 9.600 C 391.268 9.088,391.211 9.103,391.206 9.700 C 391.202 10.131,390.893 10.400,390.400 10.400 C 389.867 10.400,389.600 10.133,389.600 9.600 C 389.600 9.083,389.333 8.800,388.847 8.800 C 388.430 8.800,388.000 8.443,387.884 8.000 C 387.769 7.560,387.388 7.200,387.037 7.200 C 386.667 7.200,386.400 6.865,386.400 6.400 C 386.400 5.752,386.133 5.600,385.000 5.600 C 383.867 5.600,383.600 5.448,383.600 4.800 C 383.600 4.178,383.333 4.000,382.400 4.000 C 381.454 4.000,381.200 3.825,381.200 3.174 C 381.200 2.520,380.972 2.367,380.100 2.435 C 377.853 2.610,377.200 2.424,377.200 1.609 C 377.200 0.903,376.935 0.822,374.715 0.853 C 373.219 0.874,372.171 0.712,372.081 0.444 C 371.872 -0.183,28.531 -0.192,28.322 0.435 M319.400 27.686 C 322.188 28.446,324.210 29.791,325.816 31.952 C 326.571 32.969,327.408 34.057,327.676 34.371 C 330.090 37.195,327.240 50.000,324.198 50.000 C 324.047 50.000,323.408 50.367,322.777 50.816 C 319.693 53.012,316.103 53.583,312.537 52.444 C 296.052 47.178,302.717 23.137,319.400 27.686 M359.600 27.538 C 364.763 28.912,368.311 32.377,369.138 36.850 C 369.359 38.042,369.588 39.193,369.648 39.409 C 369.980 40.601,368.660 45.367,367.539 47.029 C 363.568 52.912,354.312 54.850,349.774 50.747 C 349.320 50.336,348.801 50.000,348.621 50.000 C 347.986 50.000,346.355 47.771,345.109 45.200 C 341.661 38.088,345.654 29.721,353.493 27.630 C 356.912 26.718,356.541 26.724,359.600 27.538 M278.052 27.767 C 280.884 28.444,282.986 29.884,285.174 32.644 C 287.560 35.652,288.130 41.049,286.414 44.385 C 285.070 47.001,283.115 49.534,282.202 49.845 C 281.762 49.994,281.222 50.335,281.002 50.603 C 280.286 51.470,274.948 52.507,273.492 52.062 C 272.781 51.845,271.543 51.557,270.740 51.423 C 269.937 51.289,269.060 50.914,268.791 50.589 C 268.522 50.265,268.075 50.000,267.798 50.000 C 267.172 50.000,264.913 47.529,263.613 45.423 C 262.156 43.063,261.934 37.539,263.197 35.115 C 266.444 28.886,271.752 26.261,278.052 27.767 M186.129 116.645 C 184.182 117.605,184.217 117.210,184.002 140.736 L 183.800 162.871 182.856 163.636 C 182.336 164.056,181.414 164.400,180.806 164.400 C 180.198 164.400,178.913 164.680,177.950 165.023 C 175.459 165.909,171.077 166.407,170.706 165.845 C 170.544 165.600,170.396 162.880,170.376 159.800 C 170.316 150.398,169.461 148.800,164.490 148.800 C 159.545 148.800,158.916 150.051,158.556 160.608 C 158.228 170.250,158.512 169.708,153.328 170.584 C 151.608 170.874,149.660 171.297,149.000 171.524 C 148.340 171.751,146.865 172.045,145.723 172.179 C 144.581 172.312,143.048 172.672,142.316 172.977 C 141.584 173.283,139.659 173.664,138.039 173.824 L 135.092 174.114 135.384 172.157 C 135.545 171.081,135.943 169.480,136.268 168.600 C 136.594 167.720,137.040 166.190,137.260 165.200 C 137.480 164.210,137.916 162.833,138.230 162.140 C 138.543 161.446,138.800 160.491,138.800 160.018 C 138.800 159.544,139.140 158.401,139.556 157.478 C 139.971 156.555,140.437 155.036,140.590 154.102 C 140.744 153.168,141.024 152.309,141.212 152.193 C 141.400 152.076,141.674 151.131,141.820 150.091 C 141.967 149.051,142.333 147.808,142.634 147.328 C 142.935 146.849,143.300 145.679,143.445 144.728 C 143.589 143.778,143.947 142.550,144.239 142.000 C 144.731 141.076,145.107 139.807,146.589 134.078 C 146.891 132.912,147.312 131.742,147.524 131.478 C 147.736 131.215,148.037 130.190,148.193 129.200 C 148.349 128.210,148.730 127.001,149.038 126.514 C 151.027 123.378,148.892 119.974,144.400 119.118 C 140.394 118.355,138.366 119.815,137.775 123.888 C 137.623 124.940,137.310 126.160,137.080 126.600 C 136.850 127.040,136.440 128.390,136.169 129.600 C 135.898 130.810,135.487 132.340,135.254 133.000 C 134.235 135.899,133.517 138.315,133.236 139.800 C 133.069 140.680,132.646 142.300,132.297 143.400 C 131.948 144.500,131.297 146.660,130.850 148.200 C 130.403 149.740,129.669 152.183,129.219 153.628 C 128.768 155.074,128.399 156.604,128.398 157.028 C 128.396 157.453,128.143 158.283,127.835 158.873 C 127.527 159.463,127.156 160.543,127.010 161.273 C 126.864 162.003,126.407 163.680,125.996 165.000 C 124.287 170.475,123.589 173.047,123.594 173.840 C 123.606 175.620,121.394 177.922,119.379 178.224 C 116.959 178.587,116.155 177.819,115.582 174.592 C 115.348 173.277,114.917 171.660,114.624 171.000 C 114.331 170.340,113.964 168.900,113.809 167.800 C 113.653 166.700,113.350 165.587,113.136 165.327 C 112.922 165.067,112.576 163.641,112.366 162.159 C 112.156 160.676,111.800 159.241,111.576 158.971 C 111.352 158.701,110.985 157.343,110.762 155.954 C 110.538 154.564,110.178 153.214,109.962 152.954 C 109.745 152.693,109.388 151.358,109.167 149.986 C 107.487 139.558,95.621 139.824,95.598 150.290 C 95.596 150.901,95.324 151.919,94.994 152.553 C 94.663 153.187,94.288 154.447,94.160 155.353 C 94.031 156.259,93.583 158.036,93.163 159.302 C 92.743 160.567,92.400 161.939,92.400 162.349 C 92.400 162.760,92.040 164.223,91.600 165.600 C 91.160 166.977,90.799 168.576,90.798 169.152 C 90.796 169.728,90.544 170.680,90.238 171.267 C 89.932 171.854,89.560 173.114,89.412 174.067 C 89.264 175.020,88.795 176.836,88.371 178.102 C 87.947 179.367,87.600 181.041,87.600 181.821 C 87.600 183.138,86.126 185.200,85.184 185.200 C 84.828 185.200,82.994 179.665,82.607 177.420 C 82.457 176.552,82.079 175.477,81.767 175.031 C 81.455 174.586,81.192 173.767,81.182 173.211 C 81.173 172.655,80.889 171.480,80.552 170.600 C 80.215 169.720,79.714 168.010,79.439 166.800 C 79.164 165.590,78.752 164.240,78.524 163.800 C 78.296 163.360,77.997 162.259,77.859 161.353 C 77.720 160.447,77.337 159.187,77.006 158.553 C 76.676 157.919,76.398 156.950,76.389 156.400 C 76.380 155.850,76.025 154.680,75.600 153.800 C 75.175 152.920,74.820 151.660,74.811 151.000 C 74.802 150.340,74.533 149.298,74.213 148.683 C 73.892 148.069,73.458 146.719,73.247 145.683 C 73.036 144.648,72.589 142.990,72.255 142.000 C 71.088 138.547,69.988 134.595,69.994 133.874 C 69.997 133.474,69.788 132.754,69.528 132.274 C 69.268 131.793,68.829 130.500,68.552 129.400 C 68.275 128.300,67.776 126.680,67.442 125.800 C 67.108 124.920,66.827 123.717,66.818 123.128 C 66.749 118.925,61.585 117.575,56.900 120.536 C 55.019 121.725,54.489 124.506,55.762 126.514 C 56.070 127.001,56.453 128.206,56.612 129.191 C 56.771 130.176,57.131 131.346,57.412 131.791 C 57.693 132.236,58.051 133.410,58.207 134.400 C 58.363 135.390,58.641 136.387,58.825 136.616 C 59.009 136.845,59.352 137.925,59.589 139.016 C 59.825 140.107,60.265 141.540,60.566 142.200 C 60.868 142.860,61.314 144.165,61.557 145.100 C 61.801 146.035,62.201 147.565,62.446 148.500 C 62.691 149.435,63.152 150.814,63.470 151.564 C 63.788 152.314,64.204 153.664,64.394 154.564 C 64.584 155.464,65.042 157.100,65.412 158.200 C 66.738 162.148,66.889 162.627,67.421 164.600 C 68.014 166.797,68.992 169.934,69.666 171.800 C 69.904 172.460,70.316 173.900,70.580 175.000 C 70.844 176.100,71.246 177.450,71.474 178.000 C 71.702 178.550,72.019 179.720,72.180 180.600 C 72.340 181.480,72.659 182.427,72.888 182.704 C 75.515 185.883,73.705 188.713,68.600 189.407 C 67.500 189.557,66.311 189.834,65.958 190.023 C 65.605 190.212,64.075 190.563,62.558 190.804 C 61.041 191.045,59.029 191.503,58.086 191.821 C 57.143 192.139,55.869 192.400,55.253 192.400 C 54.638 192.400,52.979 192.738,51.567 193.152 C 50.155 193.565,48.100 194.092,47.000 194.323 C 35.692 196.694,33.533 197.324,33.135 198.372 C 32.061 201.195,33.964 203.199,36.824 202.257 C 37.801 201.934,39.590 201.544,40.800 201.389 C 42.010 201.235,43.333 200.932,43.741 200.718 C 44.148 200.504,45.678 200.160,47.141 199.955 C 48.603 199.750,50.520 199.328,51.400 199.018 C 52.280 198.707,53.976 198.341,55.169 198.204 C 56.362 198.066,57.661 197.782,58.055 197.571 C 58.449 197.360,60.173 196.920,61.886 196.594 C 67.567 195.513,69.376 195.111,71.967 194.352 C 75.594 193.290,76.781 193.627,76.814 195.729 C 76.821 196.208,77.175 197.320,77.600 198.200 C 78.025 199.080,78.385 199.980,78.399 200.200 C 78.533 202.241,84.437 204.540,87.298 203.665 C 88.014 203.446,89.230 203.162,90.000 203.033 C 91.534 202.777,93.600 200.144,93.600 198.445 C 93.600 197.966,93.861 196.950,94.180 196.187 C 94.499 195.423,94.950 193.768,95.183 192.507 C 95.802 189.160,96.826 188.524,103.400 187.400 C 104.940 187.137,106.452 186.850,106.761 186.761 C 107.612 186.517,109.129 189.024,109.404 191.129 C 109.538 192.158,109.997 193.961,110.424 195.136 C 110.851 196.310,111.200 197.768,111.200 198.376 C 111.200 201.618,116.795 204.796,120.508 203.662 C 121.219 203.445,122.430 203.152,123.200 203.011 C 125.400 202.609,126.294 201.093,128.748 193.600 C 129.217 192.170,129.601 190.640,129.603 190.200 C 129.604 189.760,129.867 188.897,130.188 188.283 C 130.508 187.669,130.891 186.499,131.039 185.683 C 131.778 181.611,133.264 180.405,138.800 179.388 C 143.485 178.527,145.990 177.965,148.767 177.152 C 150.179 176.738,151.838 176.400,152.453 176.400 C 153.069 176.400,154.371 176.129,155.347 175.797 C 158.618 174.687,158.403 173.383,158.376 194.143 C 158.353 211.997,158.156 216.194,157.317 216.741 C 157.099 216.883,156.718 217.384,156.470 217.854 C 156.223 218.324,155.521 218.830,154.911 218.980 C 149.501 220.303,147.520 222.317,148.179 225.826 C 148.812 229.204,153.941 230.741,158.600 228.950 C 159.480 228.612,160.605 228.239,161.100 228.121 C 162.137 227.874,166.800 223.413,166.800 222.668 C 166.800 222.393,167.137 221.508,167.549 220.701 C 170.079 215.738,170.393 212.458,170.397 190.976 C 170.400 171.212,170.249 172.187,173.401 171.630 C 174.500 171.435,176.660 170.992,178.200 170.645 C 184.426 169.242,184.000 168.183,184.000 185.054 C 184.000 202.292,184.226 203.017,189.593 202.966 C 195.041 202.914,195.600 201.874,195.600 191.804 L 195.600 184.908 198.100 182.500 C 201.800 178.936,203.436 177.600,204.098 177.600 C 204.842 177.600,206.800 179.524,206.800 180.255 C 206.800 180.555,206.986 180.800,207.213 180.800 C 207.439 180.800,207.746 181.115,207.894 181.500 C 208.041 181.885,208.711 182.983,209.381 183.941 C 210.051 184.898,210.780 185.969,211.000 186.320 C 211.675 187.397,214.944 192.175,215.296 192.600 C 215.645 193.020,217.654 196.055,218.978 198.162 C 220.627 200.785,222.442 202.937,223.446 203.457 C 227.331 205.473,233.197 199.184,230.605 195.781 C 229.924 194.888,228.014 192.170,225.416 188.400 C 224.431 186.970,222.551 184.270,221.238 182.400 C 219.925 180.530,217.405 176.880,215.638 174.289 L 212.426 169.578 214.513 167.548 C 220.230 161.988,222.347 160.688,227.500 159.569 C 228.435 159.366,230.055 159.007,231.100 158.770 C 239.063 156.968,240.522 157.023,240.987 159.143 C 241.368 160.874,241.603 160.914,253.200 161.226 C 259.030 161.382,264.860 161.732,266.155 162.004 C 271.036 163.029,274.751 166.820,275.362 171.400 C 275.509 172.500,275.833 174.242,276.083 175.271 C 276.995 179.032,274.827 187.203,272.222 189.828 C 265.269 196.834,249.706 193.349,248.314 184.474 C 247.588 179.840,246.037 178.400,241.775 178.400 C 236.948 178.400,234.438 183.845,236.990 188.780 C 237.325 189.429,237.600 190.227,237.600 190.552 C 237.600 195.112,247.461 202.021,255.951 203.410 C 260.131 204.094,261.279 204.075,268.400 203.212 C 271.744 202.807,274.452 201.981,276.400 200.771 C 276.730 200.566,277.417 200.218,277.927 199.999 C 279.406 199.362,283.718 194.768,284.684 192.800 C 287.326 187.419,287.693 185.286,287.504 176.400 C 287.329 168.203,287.381 168.477,285.067 163.600 C 282.677 158.565,276.137 154.006,270.444 153.408 C 265.753 152.914,264.800 152.740,264.800 152.375 C 264.800 152.169,264.972 152.000,265.182 152.000 C 265.392 152.000,266.189 151.576,266.952 151.058 C 267.891 150.421,269.209 150.028,271.028 149.841 C 272.507 149.690,274.048 149.388,274.453 149.171 C 274.859 148.955,276.497 148.527,278.095 148.221 C 279.693 147.915,281.720 147.478,282.600 147.250 C 286.732 146.178,291.323 145.200,292.225 145.200 C 292.772 145.200,294.218 144.849,295.437 144.421 C 297.258 143.781,297.839 143.726,298.690 144.114 L 299.727 144.586 299.486 171.799 C 299.255 197.784,299.278 199.087,299.990 200.678 C 301.114 203.188,301.182 203.195,323.473 203.198 L 343.146 203.200 344.026 201.963 C 345.898 199.335,345.388 195.076,343.027 193.617 C 341.760 192.833,341.108 192.800,327.129 192.800 C 315.174 192.800,312.413 192.698,311.776 192.232 C 311.025 191.683,310.997 190.890,310.891 167.282 C 310.775 141.338,310.800 140.973,312.686 140.605 C 313.299 140.485,314.520 140.196,315.400 139.962 C 316.280 139.729,317.900 139.361,319.000 139.145 C 320.100 138.929,321.810 138.510,322.800 138.212 C 323.790 137.915,325.590 137.546,326.800 137.392 C 328.010 137.237,329.572 136.876,330.271 136.588 C 330.971 136.300,332.591 135.938,333.871 135.784 C 335.152 135.630,336.743 135.282,337.407 135.011 C 338.070 134.740,339.510 134.390,340.607 134.232 C 343.371 133.834,347.706 132.473,348.078 131.887 C 348.791 130.765,348.426 128.795,347.420 128.336 C 346.347 127.847,339.720 128.493,338.364 129.219 C 337.967 129.432,336.598 129.762,335.321 129.954 C 333.243 130.267,330.740 130.822,325.800 132.066 C 324.920 132.288,323.120 132.652,321.800 132.876 C 320.480 133.100,318.680 133.526,317.800 133.825 C 311.340 136.013,310.800 135.519,310.800 127.421 C 310.800 119.381,310.655 119.131,305.921 119.050 C 299.840 118.946,299.603 119.337,299.594 129.487 C 299.586 138.134,299.312 138.535,292.831 139.367 C 291.638 139.521,290.314 139.832,289.890 140.059 C 289.465 140.286,287.934 140.640,286.487 140.845 C 285.040 141.049,283.072 141.483,282.114 141.809 C 281.156 142.134,279.869 142.400,279.253 142.400 C 278.638 142.400,276.979 142.738,275.567 143.152 C 274.155 143.565,272.100 144.092,271.000 144.323 C 269.900 144.554,268.145 144.935,267.100 145.171 C 266.055 145.407,264.345 145.792,263.300 146.027 C 262.255 146.262,260.410 146.632,259.200 146.848 C 257.990 147.064,256.069 147.527,254.931 147.875 C 251.853 148.818,251.600 148.593,251.598 144.913 C 251.595 141.409,252.709 131.077,253.237 129.700 L 253.583 128.800 266.214 128.800 C 281.650 128.800,282.130 128.717,282.950 125.917 C 283.507 124.020,283.040 120.107,282.150 119.217 C 281.861 118.927,246.444 118.705,245.317 118.986 C 243.562 119.424,242.826 122.206,242.415 129.964 C 242.210 133.834,241.858 138.350,241.632 140.000 C 241.407 141.650,241.110 144.593,240.972 146.539 C 240.672 150.774,240.227 151.387,237.144 151.801 C 235.965 151.959,234.393 152.339,233.651 152.644 C 231.201 153.654,228.452 153.391,227.963 152.100 C 227.342 150.460,226.028 149.238,224.419 148.805 C 221.895 148.125,221.258 148.516,213.833 155.289 C 212.935 156.108,211.990 156.783,211.733 156.789 C 211.477 156.795,211.200 157.001,211.118 157.247 C 210.981 157.658,209.522 158.041,203.600 159.218 C 202.390 159.459,200.485 159.932,199.367 160.270 C 195.042 161.577,195.290 162.888,195.234 138.400 C 195.208 127.290,195.056 118.011,194.894 117.779 C 193.753 116.145,188.517 115.467,186.129 116.645 M161.800 122.380 C 156.393 124.900,156.864 131.578,162.575 133.375 C 169.118 135.433,173.818 127.407,168.462 123.322 C 166.929 122.153,163.368 121.649,161.800 122.380 M201.016 166.194 C 201.734 166.419,198.009 170.200,196.742 170.531 C 195.807 170.776,195.040 169.491,195.360 168.216 C 195.601 167.258,198.870 165.537,199.873 165.840 C 200.163 165.928,200.677 166.087,201.016 166.194 M103.841 169.020 C 104.348 170.549,104.771 172.204,104.781 172.698 C 104.792 173.193,105.172 174.671,105.626 175.985 C 106.867 179.568,106.607 180.918,104.600 181.321 C 103.720 181.497,102.142 181.911,101.093 182.240 C 100.044 182.569,99.009 182.729,98.793 182.595 C 98.130 182.186,98.356 178.698,99.200 176.296 C 99.640 175.044,100.006 173.430,100.014 172.710 C 100.022 171.989,100.286 170.950,100.600 170.400 C 100.914 169.850,101.178 169.097,101.186 168.726 C 101.257 165.323,102.668 165.479,103.841 169.020 M120.222 184.835 C 120.634 185.502,119.707 186.267,119.155 185.715 C 118.693 185.253,118.982 184.400,119.600 184.400 C 119.794 184.400,120.074 184.596,120.222 184.835 M52.950 334.671 C 49.545 335.357,48.713 341.783,51.735 344.051 L 53.000 345.000 86.092 345.000 L 119.185 345.000 120.492 343.691 C 122.385 341.797,122.438 337.655,120.594 335.800 L 119.400 334.600 86.600 334.550 C 68.560 334.522,53.417 334.577,52.950 334.671 " stroke="none" fill="#3c3d58" fill-rule="evenodd"></path><path id="path1" d="M0.000 227.967 C 0.000 320.225,0.142 375.583,0.378 375.667 C 0.586 375.740,0.799 376.771,0.852 377.957 C 0.928 379.655,1.103 380.154,1.674 380.303 C 2.321 380.473,2.687 381.946,2.431 383.349 C 2.396 383.541,2.651 383.589,2.999 383.456 C 3.732 383.175,4.243 384.236,4.369 386.300 C 4.386 386.575,4.670 386.800,5.000 386.800 C 5.346 386.800,5.613 387.181,5.632 387.700 C 5.649 388.195,5.753 388.377,5.864 388.104 C 6.124 387.460,7.200 388.463,7.200 389.348 C 7.200 389.729,7.484 389.899,7.964 389.807 C 8.506 389.703,8.800 389.947,8.976 390.646 C 9.112 391.189,9.398 391.525,9.612 391.393 C 9.962 391.177,10.172 391.711,10.047 392.500 C 10.021 392.665,10.450 392.800,11.000 392.800 C 11.733 392.800,12.000 392.587,12.000 392.000 C 12.000 391.560,11.816 391.200,11.591 391.200 C 11.367 391.200,10.978 390.750,10.727 390.200 C 10.477 389.650,10.030 389.200,9.736 389.200 C 9.441 389.200,9.200 388.905,9.200 388.544 C 9.200 388.183,8.903 387.671,8.541 387.406 C 7.727 386.811,7.516 385.204,8.138 384.352 C 8.556 383.781,14.464 383.688,68.001 383.416 C 136.993 383.065,217.955 382.542,290.800 381.978 C 344.891 381.558,393.189 381.383,394.200 381.603 C 394.901 381.755,394.983 382.457,394.371 383.069 C 393.840 383.600,394.607 386.800,395.264 386.800 C 395.568 386.800,395.564 386.638,395.249 386.259 C 394.761 385.671,396.315 382.930,397.056 383.072 C 397.264 383.112,397.477 382.582,397.529 381.893 C 397.634 380.525,397.826 380.200,398.531 380.200 C 398.811 380.200,399.050 379.326,399.133 378.000 C 399.208 376.790,399.434 375.740,399.635 375.667 C 399.854 375.587,400.000 316.641,400.000 227.967 L 400.000 80.400 200.000 80.400 L 0.000 80.400 0.000 227.967 M192.836 115.383 C 194.376 115.629,195.679 116.786,196.233 118.400 C 196.422 118.950,196.672 128.310,196.788 139.200 L 197.000 159.000 199.744 158.888 C 201.252 158.826,202.962 158.536,203.544 158.243 C 204.125 157.950,205.590 157.607,206.800 157.481 C 209.703 157.177,211.260 156.311,214.613 153.135 C 219.201 148.788,221.499 147.200,223.200 147.200 C 224.960 147.200,228.083 149.515,228.774 151.331 C 229.239 152.554,229.586 152.609,231.800 151.812 C 232.680 151.495,234.100 151.227,234.956 151.218 C 239.569 151.166,240.362 149.661,240.429 140.841 C 240.445 138.729,240.626 136.010,240.830 134.800 C 241.035 133.590,241.380 130.080,241.597 127.000 C 242.321 116.725,241.274 117.200,263.200 117.200 C 280.919 117.200,283.200 117.437,283.200 119.277 C 283.200 119.530,283.512 120.082,283.893 120.503 C 284.907 121.623,284.810 125.390,283.723 127.130 C 282.026 129.847,282.411 129.779,267.400 130.000 L 253.800 130.200 253.704 133.400 C 253.651 135.160,253.421 138.747,253.194 141.371 C 252.880 145.000,252.895 146.212,253.257 146.435 C 253.909 146.838,257.975 146.401,259.200 145.796 C 259.750 145.524,261.280 145.178,262.600 145.028 C 263.920 144.877,265.540 144.512,266.200 144.217 C 266.860 143.923,268.565 143.551,269.990 143.391 C 271.414 143.231,272.944 142.870,273.390 142.588 C 273.835 142.306,275.370 141.948,276.800 141.792 C 278.230 141.636,279.741 141.329,280.157 141.110 C 280.573 140.890,282.109 140.561,283.569 140.377 C 285.029 140.194,286.758 139.765,287.412 139.425 C 288.065 139.084,289.269 138.804,290.086 138.802 C 290.903 138.801,292.356 138.534,293.313 138.209 C 294.271 137.884,295.762 137.471,296.627 137.291 L 298.200 136.965 298.309 129.044 C 298.428 120.345,298.992 118.400,301.397 118.400 C 301.893 118.400,302.997 118.158,303.850 117.862 C 305.129 117.417,305.610 117.414,306.600 117.844 C 307.260 118.130,308.267 118.372,308.838 118.382 C 311.282 118.424,312.386 121.559,312.394 128.476 C 312.401 134.081,312.503 134.302,314.667 133.398 C 315.493 133.052,317.256 132.662,318.585 132.529 C 319.913 132.397,321.479 132.047,322.066 131.752 C 322.652 131.457,324.182 131.097,325.466 130.952 C 326.749 130.807,328.290 130.442,328.890 130.139 C 329.489 129.837,331.109 129.485,332.490 129.357 C 333.870 129.229,335.540 128.887,336.200 128.598 C 336.860 128.308,338.480 127.942,339.800 127.785 C 341.120 127.627,342.686 127.251,343.280 126.949 C 346.891 125.114,351.182 128.448,349.415 131.715 C 348.563 133.290,345.520 134.800,343.197 134.800 C 342.297 134.800,341.028 135.075,340.378 135.411 C 339.728 135.747,337.930 136.181,336.382 136.376 C 334.834 136.570,333.350 136.909,333.084 137.129 C 332.818 137.350,331.250 137.708,329.600 137.925 C 327.950 138.143,325.880 138.601,325.000 138.943 C 324.120 139.285,322.716 139.573,321.880 139.582 C 321.044 139.592,319.845 139.867,319.215 140.192 C 318.584 140.518,317.018 140.903,315.734 141.047 C 314.451 141.191,313.175 141.487,312.900 141.703 C 312.510 142.011,312.400 147.522,312.400 166.831 L 312.400 191.564 327.731 191.682 L 343.062 191.800 344.409 193.147 C 346.389 195.128,346.669 200.666,344.892 202.681 C 343.457 204.307,342.250 204.401,323.240 204.374 C 302.547 204.345,301.199 204.212,299.358 202.021 L 298.200 200.642 298.200 173.155 C 298.200 158.037,298.110 145.584,298.000 145.481 C 297.735 145.233,291.729 146.186,290.200 146.718 C 289.540 146.948,288.067 147.245,286.926 147.378 C 285.785 147.512,284.345 147.885,283.726 148.208 C 283.107 148.531,281.948 148.796,281.152 148.798 C 280.356 148.799,278.577 149.160,277.200 149.600 C 275.823 150.040,274.134 150.402,273.448 150.405 C 271.469 150.414,270.400 150.833,270.400 151.600 C 270.400 152.318,271.455 152.785,273.101 152.795 C 273.597 152.798,274.675 153.160,275.496 153.600 C 276.316 154.040,277.188 154.400,277.432 154.400 C 277.676 154.400,278.202 154.760,278.600 155.200 C 278.998 155.640,279.527 156.000,279.775 156.000 C 280.364 156.000,284.800 160.486,284.800 161.083 C 284.800 161.336,285.034 161.781,285.321 162.071 C 286.365 163.132,287.688 166.478,288.023 168.909 C 288.212 170.279,288.550 172.120,288.774 173.000 C 289.290 175.029,289.300 180.110,288.792 182.200 C 288.578 183.080,288.228 184.980,288.014 186.422 C 287.529 189.694,284.957 195.411,283.766 195.868 C 283.455 195.988,283.197 196.291,283.193 196.543 C 283.179 197.445,277.572 202.000,276.475 202.000 C 276.156 202.000,275.333 202.337,274.647 202.749 C 273.961 203.161,272.267 203.609,270.882 203.745 C 269.496 203.880,267.966 204.214,267.482 204.485 C 266.039 205.293,256.603 205.156,254.492 204.296 C 253.552 203.913,252.292 203.599,251.692 203.597 C 251.091 203.596,250.060 203.237,249.400 202.800 C 248.740 202.363,247.920 202.004,247.578 202.003 C 247.235 202.001,246.397 201.595,245.715 201.100 C 245.033 200.605,244.071 199.930,243.577 199.600 C 241.474 198.195,238.401 194.725,237.554 192.800 C 237.312 192.250,236.953 191.530,236.756 191.200 C 235.799 189.596,235.580 188.378,235.550 184.491 L 235.518 180.281 237.021 178.904 L 238.524 177.527 242.241 177.664 C 246.940 177.836,248.535 178.997,248.920 182.527 C 249.160 184.728,250.536 187.987,251.451 188.520 C 251.753 188.696,252.000 189.081,252.000 189.377 C 252.000 189.672,252.495 190.037,253.100 190.188 C 253.705 190.339,254.481 190.716,254.825 191.026 C 256.503 192.536,267.104 192.363,269.101 190.792 C 269.655 190.357,270.309 189.999,270.554 189.997 C 270.948 189.995,271.373 189.436,273.016 186.762 C 273.244 186.390,273.694 185.769,274.016 185.382 C 274.772 184.472,275.104 171.945,274.413 170.400 C 273.259 167.821,270.366 164.400,269.339 164.400 C 269.064 164.400,268.682 164.119,268.490 163.775 C 267.994 162.888,262.441 162.424,252.175 162.411 C 242.602 162.399,240.898 162.005,240.064 159.612 C 239.576 158.211,237.159 157.902,234.961 158.958 C 234.323 159.266,232.720 159.644,231.400 159.800 C 230.081 159.955,228.551 160.311,228.000 160.590 C 227.450 160.870,225.980 161.222,224.733 161.374 C 223.334 161.544,222.382 161.869,222.246 162.225 C 222.124 162.541,221.863 162.800,221.666 162.800 C 221.347 162.800,218.286 165.451,215.122 168.469 C 213.877 169.656,213.935 170.270,215.468 172.131 C 215.981 172.753,216.400 173.518,216.400 173.831 C 216.400 174.144,216.586 174.400,216.813 174.400 C 217.039 174.400,217.339 174.715,217.478 175.100 C 217.616 175.485,217.975 176.070,218.275 176.400 C 219.135 177.347,220.800 179.997,220.800 180.418 C 220.800 180.628,220.962 180.800,221.160 180.800 C 221.359 180.800,221.944 181.464,222.460 182.275 C 224.987 186.243,225.737 187.323,226.500 188.093 C 226.885 188.482,227.200 188.980,227.200 189.200 C 227.200 189.420,227.515 189.930,227.900 190.334 C 228.285 190.738,228.822 191.413,229.093 191.834 C 229.364 192.255,230.008 193.238,230.525 194.018 C 233.246 198.124,232.263 201.763,227.789 204.144 C 224.558 205.864,221.928 204.906,219.844 201.250 C 219.600 200.821,218.815 199.636,218.100 198.615 C 217.385 197.595,216.800 196.598,216.800 196.400 C 216.800 196.202,216.573 195.896,216.296 195.720 C 215.671 195.323,213.600 192.165,213.600 191.609 C 213.600 191.384,213.450 191.200,213.267 191.200 C 212.860 191.200,210.400 187.462,210.400 186.844 C 210.400 186.600,210.256 186.400,210.080 186.400 C 209.904 186.400,208.785 184.915,207.594 183.100 C 204.176 177.894,204.650 178.027,200.985 181.244 C 196.534 185.151,196.819 184.385,196.809 192.476 C 196.804 196.753,196.642 199.651,196.400 199.800 C 196.180 199.936,196.000 200.364,196.000 200.751 C 196.000 202.727,191.845 204.259,187.886 203.743 C 185.916 203.486,184.000 202.341,184.000 201.420 C 184.000 201.133,183.732 200.676,183.405 200.404 C 182.902 199.987,182.794 197.673,182.705 185.455 L 182.600 171.000 181.527 170.876 C 180.936 170.808,179.906 171.035,179.237 171.381 C 178.568 171.727,176.926 172.125,175.589 172.264 C 174.181 172.411,172.768 172.825,172.233 173.246 L 171.308 173.973 171.124 195.087 C 170.945 215.583,170.915 216.247,170.099 217.800 C 169.637 218.680,168.704 220.570,168.028 222.000 C 163.353 231.879,146.749 233.940,146.814 224.633 C 146.835 221.681,150.273 218.400,153.345 218.400 C 154.446 218.400,155.181 217.830,156.438 216.000 L 157.400 214.600 157.400 195.800 L 157.400 177.000 154.800 177.103 C 153.370 177.159,151.660 177.454,151.000 177.758 C 150.340 178.061,148.720 178.438,147.400 178.595 C 146.080 178.752,144.659 179.063,144.243 179.285 C 143.827 179.507,142.227 179.847,140.689 180.040 C 139.151 180.234,137.682 180.566,137.426 180.778 C 137.170 180.991,136.189 181.288,135.246 181.439 C 134.185 181.609,133.461 181.958,133.345 182.357 C 133.243 182.710,132.898 183.510,132.579 184.134 C 132.260 184.757,131.882 186.017,131.739 186.934 C 131.596 187.850,131.146 189.227,130.739 189.994 C 130.333 190.761,130.000 191.936,130.000 192.605 C 130.000 193.274,129.755 194.177,129.455 194.611 C 129.155 195.045,128.785 196.253,128.631 197.295 C 128.478 198.338,128.093 199.450,127.776 199.767 C 127.459 200.084,127.200 200.526,127.200 200.751 C 127.200 202.684,121.204 205.472,118.225 204.925 C 113.499 204.056,111.121 202.334,110.573 199.382 C 110.412 198.512,110.056 197.440,109.782 197.000 C 109.508 196.560,109.158 195.120,109.004 193.800 C 108.849 192.480,108.576 191.220,108.398 191.000 C 108.219 190.780,107.909 189.970,107.709 189.200 C 107.305 187.647,104.782 187.374,102.363 188.621 C 101.792 188.915,100.428 189.275,99.331 189.420 C 97.009 189.728,96.223 190.784,95.772 194.200 C 95.627 195.300,95.276 196.740,94.992 197.400 C 94.707 198.060,94.356 199.128,94.212 199.773 C 93.304 203.813,86.985 205.997,81.710 204.093 C 79.625 203.341,77.600 201.633,77.600 200.628 C 77.600 200.337,77.353 199.893,77.051 199.642 C 76.748 199.391,76.382 198.289,76.237 197.193 C 76.023 195.584,75.824 195.200,75.203 195.200 C 73.378 195.200,68.096 196.118,66.940 196.635 C 66.246 196.946,64.986 197.208,64.140 197.218 C 63.293 197.227,61.880 197.506,61.000 197.838 C 60.120 198.169,58.161 198.609,56.646 198.816 C 55.131 199.023,53.685 199.364,53.431 199.574 C 53.178 199.784,51.576 200.130,49.871 200.341 C 48.166 200.553,46.532 200.925,46.239 201.167 C 45.947 201.410,44.469 201.777,42.954 201.984 C 41.439 202.191,39.480 202.631,38.600 202.962 C 36.015 203.936,34.132 203.782,32.937 202.500 C 29.646 198.969,31.864 196.190,38.800 195.154 C 40.230 194.940,41.940 194.523,42.600 194.228 C 43.260 193.932,44.880 193.561,46.200 193.404 C 47.519 193.246,49.049 192.890,49.600 192.612 C 50.150 192.334,51.761 191.980,53.180 191.824 C 54.600 191.669,56.110 191.355,56.537 191.126 C 56.965 190.898,58.509 190.561,59.969 190.377 C 61.429 190.194,63.158 189.765,63.812 189.425 C 64.465 189.084,65.654 188.804,66.454 188.802 C 68.133 188.800,71.950 187.696,72.734 186.987 C 73.176 186.587,73.134 186.171,72.488 184.552 C 71.754 182.714,71.420 181.605,70.362 177.500 C 70.121 176.565,69.670 175.290,69.361 174.666 C 69.052 174.043,68.682 172.783,68.539 171.866 C 68.396 170.950,67.946 169.573,67.539 168.806 C 67.133 168.039,66.794 166.779,66.787 166.006 C 66.780 165.233,66.523 164.268,66.216 163.863 C 65.909 163.458,65.538 162.378,65.390 161.463 C 65.243 160.548,64.875 159.408,64.571 158.928 C 64.267 158.449,63.896 157.279,63.747 156.328 C 63.597 155.378,63.252 154.240,62.981 153.800 C 62.709 153.360,62.362 152.115,62.209 151.033 C 62.056 149.952,61.694 148.692,61.404 148.233 C 61.114 147.775,60.754 146.636,60.604 145.702 C 60.453 144.768,60.178 143.910,59.992 143.795 C 59.806 143.680,59.441 142.554,59.181 141.293 C 58.921 140.032,58.459 138.514,58.154 137.920 C 57.849 137.326,57.594 136.426,57.586 135.920 C 57.579 135.414,57.225 134.280,56.800 133.400 C 56.375 132.520,56.021 131.347,56.014 130.794 C 56.006 130.241,55.640 129.116,55.200 128.296 C 52.789 123.796,54.628 119.267,59.220 118.396 C 60.343 118.183,61.419 117.912,61.610 117.794 C 63.267 116.769,67.600 120.013,67.600 122.278 C 67.600 122.737,67.956 123.897,68.391 124.856 C 68.826 125.815,69.186 127.145,69.191 127.811 C 69.196 128.477,69.464 129.399,69.786 129.859 C 70.109 130.319,70.544 131.665,70.753 132.848 C 70.962 134.032,71.410 135.720,71.749 136.600 C 72.088 137.480,72.379 138.650,72.395 139.200 C 72.412 139.750,72.682 140.539,72.996 140.954 C 73.310 141.369,73.688 142.539,73.836 143.554 C 73.983 144.569,74.327 145.850,74.600 146.400 C 74.873 146.950,75.225 148.285,75.383 149.367 C 75.540 150.448,75.902 151.708,76.187 152.167 C 76.472 152.625,76.821 153.778,76.962 154.728 C 77.103 155.679,77.465 156.849,77.766 157.328 C 78.067 157.808,78.434 159.056,78.581 160.102 C 78.729 161.148,79.107 162.498,79.422 163.102 C 79.737 163.706,79.996 164.702,79.998 165.316 C 79.999 165.930,80.335 167.100,80.744 167.916 C 81.153 168.732,81.601 170.141,81.740 171.047 C 81.879 171.953,82.263 173.213,82.594 173.847 C 82.924 174.481,83.196 175.586,83.198 176.301 C 83.199 177.017,83.560 178.275,84.000 179.096 C 84.440 179.916,84.800 181.165,84.800 181.870 C 84.800 182.576,84.951 183.246,85.135 183.360 C 85.666 183.688,87.200 180.623,87.200 179.236 C 87.200 178.545,87.560 176.956,88.000 175.704 C 88.440 174.452,88.801 172.881,88.802 172.214 C 88.804 171.546,89.073 170.486,89.400 169.858 C 89.728 169.230,90.165 167.665,90.372 166.380 C 90.579 165.095,90.930 163.705,91.151 163.291 C 91.373 162.877,91.675 161.562,91.823 160.369 C 91.971 159.176,92.319 157.836,92.596 157.390 C 92.873 156.945,93.229 155.595,93.388 154.390 C 93.546 153.186,93.918 151.697,94.216 151.082 C 94.513 150.468,94.883 149.118,95.038 148.082 C 95.643 144.034,97.275 142.139,100.481 141.762 C 106.278 141.081,109.011 142.973,109.780 148.200 C 109.942 149.300,110.244 150.405,110.450 150.656 C 110.656 150.906,111.022 152.256,111.263 153.656 C 111.504 155.055,111.849 156.387,112.029 156.615 C 112.210 156.844,112.557 158.277,112.800 159.800 C 113.043 161.323,113.420 162.783,113.637 163.045 C 113.854 163.306,114.215 164.657,114.438 166.046 C 114.662 167.436,115.021 168.785,115.237 169.044 C 115.452 169.304,115.798 170.570,116.004 171.858 C 116.304 173.725,117.262 176.669,117.852 177.540 C 117.905 177.618,118.680 177.358,119.576 176.963 C 121.421 176.149,122.538 174.288,123.165 170.986 C 123.373 169.894,123.824 168.460,124.169 167.800 C 124.513 167.140,124.796 165.965,124.798 165.189 C 124.799 164.413,125.047 163.423,125.350 162.989 C 125.652 162.555,126.030 161.390,126.188 160.400 C 126.347 159.410,126.714 158.225,127.004 157.767 C 127.294 157.308,127.656 156.048,127.809 154.967 C 127.962 153.885,128.311 152.640,128.585 152.200 C 128.859 151.760,129.213 150.500,129.372 149.400 C 129.532 148.300,129.892 147.040,130.172 146.600 C 130.453 146.160,130.816 144.906,130.979 143.814 C 131.142 142.722,131.528 141.467,131.837 141.025 C 132.147 140.583,132.400 139.813,132.400 139.313 C 132.400 138.812,132.744 137.367,133.165 136.102 C 133.586 134.836,134.051 133.089,134.198 132.220 C 134.346 131.352,134.721 130.277,135.033 129.831 C 135.345 129.386,135.606 128.477,135.614 127.811 C 135.621 127.145,135.975 125.880,136.400 125.000 C 136.825 124.120,137.179 122.960,137.186 122.422 C 137.225 119.608,141.025 117.075,143.856 117.975 C 144.485 118.175,145.630 118.443,146.400 118.571 C 150.084 119.182,151.662 123.931,149.600 128.200 C 149.175 129.080,148.815 130.250,148.800 130.800 C 148.785 131.350,148.425 132.520,148.000 133.400 C 147.575 134.280,147.220 135.450,147.211 136.000 C 147.202 136.550,146.944 137.480,146.638 138.067 C 146.332 138.654,145.956 139.914,145.802 140.867 C 145.649 141.820,145.293 142.964,145.012 143.409 C 144.731 143.854,144.371 145.024,144.212 146.009 C 144.053 146.994,143.675 148.192,143.371 148.672 C 143.067 149.151,142.703 150.321,142.562 151.272 C 142.421 152.222,142.085 153.360,141.815 153.800 C 141.546 154.240,141.198 155.410,141.042 156.400 C 140.887 157.390,140.527 158.560,140.242 159.000 C 139.958 159.440,139.598 160.610,139.442 161.600 C 139.287 162.590,138.927 163.760,138.642 164.200 C 138.358 164.640,138.002 165.784,137.851 166.742 C 137.700 167.700,137.312 168.996,136.989 169.622 C 135.302 172.883,137.021 174.097,140.647 172.206 C 141.281 171.876,142.452 171.604,143.248 171.602 C 144.044 171.601,145.823 171.240,147.200 170.800 C 148.577 170.360,150.238 170.000,150.891 170.000 C 151.543 170.000,153.310 169.600,154.818 169.111 L 157.558 168.221 157.679 159.517 L 157.800 150.814 159.108 149.507 C 160.405 148.210,160.446 148.200,164.308 148.200 C 170.855 148.200,171.190 148.758,171.197 159.700 L 171.200 165.200 172.620 165.200 C 173.401 165.200,174.566 164.928,175.210 164.595 C 175.853 164.262,177.465 163.876,178.792 163.738 C 182.958 163.302,182.572 165.558,182.800 140.333 C 183.036 114.201,182.686 115.726,188.600 115.073 C 189.815 114.939,190.254 114.971,192.836 115.383 M169.341 122.636 C 170.144 123.276,170.800 124.003,170.800 124.251 C 170.800 124.499,171.070 124.926,171.400 125.200 C 172.104 125.784,172.244 129.802,171.575 130.215 C 171.342 130.360,170.988 130.906,170.789 131.430 C 168.713 136.890,158.604 135.250,157.252 129.235 C 156.578 126.235,158.800 122.027,161.362 121.451 C 163.903 120.880,167.881 121.471,169.341 122.636 M102.000 169.026 C 102.000 169.810,101.653 171.295,101.229 172.326 C 100.804 173.357,100.342 175.232,100.201 176.494 C 100.060 177.755,99.777 178.891,99.572 179.017 C 98.018 179.978,99.258 181.251,101.500 180.996 C 105.508 180.540,106.027 180.110,104.985 178.112 C 104.666 177.501,104.404 176.411,104.402 175.690 C 104.401 174.970,104.040 173.356,103.600 172.104 C 103.160 170.852,102.800 169.326,102.800 168.714 C 102.800 168.101,102.620 167.600,102.400 167.600 C 102.180 167.600,102.000 168.242,102.000 169.026 M197.000 168.000 C 196.864 168.220,197.123 168.400,197.576 168.400 C 198.029 168.400,198.400 168.220,198.400 168.000 C 198.400 167.780,198.141 167.600,197.824 167.600 C 197.507 167.600,197.136 167.780,197.000 168.000 M118.840 333.655 C 123.892 335.347,124.874 341.365,120.659 344.800 L 119.432 345.800 85.786 345.800 L 52.140 345.800 50.870 344.601 C 50.171 343.942,49.600 343.199,49.600 342.950 C 49.600 342.702,49.330 342.274,49.000 342.000 C 48.639 341.700,48.400 340.825,48.400 339.800 C 48.400 338.775,48.639 337.900,49.000 337.600 C 49.330 337.326,49.600 336.882,49.600 336.612 C 49.600 335.742,51.060 334.407,52.650 333.825 C 54.697 333.074,116.633 332.916,118.840 333.655 M392.800 387.171 C 392.800 387.694,392.541 388.000,392.100 388.000 C 391.631 388.000,391.380 388.339,391.341 389.024 C 391.269 390.264,390.053 391.706,389.316 391.423 C 388.899 391.263,388.875 391.392,389.205 392.009 C 389.438 392.444,389.722 392.800,389.838 392.800 C 389.953 392.800,389.954 392.649,389.839 392.463 C 389.539 391.977,392.183 389.527,392.613 389.893 C 392.811 390.062,392.725 389.876,392.421 389.480 C 391.932 388.843,391.968 388.733,392.734 388.533 C 393.210 388.409,393.600 388.137,393.600 387.930 C 393.600 387.722,393.797 387.675,394.038 387.824 C 394.310 387.992,394.423 387.813,394.334 387.352 C 394.127 386.275,392.800 386.119,392.800 387.171 M11.974 393.648 C 11.721 394.121,11.696 394.388,11.918 394.250 C 12.498 393.892,14.291 394.926,14.098 395.507 C 14.007 395.778,14.218 396.000,14.567 396.000 C 14.933 396.000,15.200 395.663,15.200 395.200 C 15.200 394.622,14.933 394.400,14.237 394.400 C 13.472 394.400,13.318 394.236,13.484 393.600 C 13.772 392.498,12.569 392.536,11.974 393.648 M386.107 394.410 C 385.516 394.648,385.295 394.983,385.456 395.402 C 385.705 396.051,386.595 396.024,386.606 395.367 C 386.609 395.165,386.755 394.775,386.930 394.500 C 387.293 393.929,387.301 393.929,386.107 394.410 M16.900 396.265 C 16.625 396.376,16.403 396.767,16.406 397.133 C 16.411 397.652,16.488 397.681,16.751 397.266 C 16.937 396.972,17.245 396.761,17.435 396.796 C 17.625 396.831,17.845 396.667,17.923 396.430 C 18.074 395.979,17.740 395.926,16.900 396.265 M19.917 397.870 C 20.313 398.030,20.325 398.208,19.968 398.639 C 19.589 399.096,19.693 399.200,20.526 399.200 C 21.304 399.200,21.536 399.007,21.490 398.400 C 21.446 397.817,21.155 397.609,20.415 397.632 C 19.857 397.649,19.633 397.756,19.917 397.870 M24.400 399.600 C 24.400 399.820,24.760 400.000,25.200 400.000 C 25.640 400.000,26.000 399.820,26.000 399.600 C 26.000 399.380,25.640 399.200,25.200 399.200 C 24.760 399.200,24.400 399.380,24.400 399.600 " stroke="none" fill="#dfeffb" fill-rule="evenodd"></path><path id="path2" d="M312.600 27.548 C 301.954 30.513,299.400 44.408,308.385 50.481 C 313.144 53.698,318.553 53.824,322.777 50.816 C 323.408 50.367,324.047 50.000,324.198 50.000 C 327.240 50.000,330.090 37.195,327.676 34.371 C 327.408 34.057,326.571 32.969,325.816 31.952 C 322.888 28.010,317.448 26.197,312.600 27.548 M353.493 27.630 C 345.654 29.721,341.661 38.088,345.109 45.200 C 346.355 47.771,347.986 50.000,348.621 50.000 C 348.801 50.000,349.320 50.336,349.774 50.747 C 354.312 54.850,363.568 52.912,367.539 47.029 C 368.660 45.367,369.980 40.601,369.648 39.409 C 369.588 39.193,369.359 38.042,369.138 36.850 C 368.311 32.377,364.763 28.912,359.600 27.538 C 356.541 26.724,356.912 26.718,353.493 27.630 M319.173 28.244 C 326.730 29.445,330.634 39.530,326.249 46.526 C 318.407 59.038,299.175 49.437,304.359 35.598 C 306.170 30.764,312.131 26.972,316.600 27.811 C 317.040 27.894,318.198 28.089,319.173 28.244 " stroke="none" fill="#cd4b60" fill-rule="evenodd"></path><path id="path3" d="M24.400 0.371 C 24.400 0.854,25.477 1.051,27.100 0.863 C 29.133 0.628,28.624 0.000,26.400 0.000 C 25.300 0.000,24.400 0.167,24.400 0.371 M372.000 0.355 C 372.000 0.757,373.846 1.093,374.900 0.881 C 376.302 0.601,375.553 0.000,373.800 0.000 C 372.810 0.000,372.000 0.160,372.000 0.355 M19.867 1.067 C 18.954 1.979,20.372 2.942,22.000 2.516 C 23.418 2.145,23.000 0.800,21.467 0.800 C 20.733 0.800,20.013 0.920,19.867 1.067 M377.200 1.529 C 377.200 2.338,378.812 2.924,379.894 2.508 C 381.014 2.079,380.225 1.003,378.697 0.876 C 377.439 0.771,377.200 0.876,377.200 1.529 M16.800 3.200 C 16.523 3.717,15.962 4.000,15.213 4.000 C 14.405 4.000,13.977 4.242,13.800 4.800 C 13.660 5.240,13.198 5.600,12.773 5.600 C 12.081 5.600,11.814 6.022,11.953 6.900 C 11.979 7.065,11.640 7.200,11.200 7.200 C 10.667 7.200,10.400 7.467,10.400 8.000 C 10.400 8.533,10.133 8.800,9.600 8.800 C 9.067 8.800,8.800 9.067,8.800 9.600 C 8.800 10.133,8.533 10.400,8.000 10.400 C 7.467 10.400,7.200 10.667,7.200 11.200 C 7.200 11.640,7.065 11.979,6.900 11.953 C 6.022 11.814,5.600 12.081,5.600 12.773 C 5.600 13.198,5.240 13.660,4.800 13.800 C 4.242 13.977,4.000 14.405,4.000 15.213 C 4.000 15.962,3.717 16.523,3.200 16.800 C 2.760 17.035,2.400 17.582,2.400 18.014 C 2.400 18.533,2.671 18.800,3.200 18.800 C 3.822 18.800,4.000 18.533,4.000 17.600 C 4.000 16.667,4.178 16.400,4.800 16.400 C 5.448 16.400,5.600 16.133,5.600 15.000 C 5.600 13.896,5.759 13.600,6.353 13.600 C 6.770 13.600,7.200 13.243,7.316 12.800 C 7.431 12.360,7.791 12.000,8.116 12.000 C 8.441 12.000,8.801 11.640,8.916 11.200 C 9.031 10.760,9.391 10.400,9.716 10.400 C 10.041 10.400,10.401 10.040,10.516 9.600 C 10.631 9.160,11.012 8.800,11.363 8.800 C 11.713 8.800,12.000 8.513,12.000 8.163 C 12.000 7.812,12.360 7.431,12.800 7.316 C 13.243 7.200,13.600 6.770,13.600 6.353 C 13.600 5.759,13.896 5.600,15.000 5.600 C 16.133 5.600,16.400 5.448,16.400 4.800 C 16.400 4.178,16.667 4.000,17.600 4.000 C 18.533 4.000,18.800 3.822,18.800 3.200 C 18.800 2.671,18.533 2.400,18.014 2.400 C 17.582 2.400,17.035 2.760,16.800 3.200 M381.200 3.200 C 381.200 3.822,381.467 4.000,382.400 4.000 C 383.333 4.000,383.600 4.178,383.600 4.800 C 383.600 5.448,383.867 5.600,385.000 5.600 C 386.104 5.600,386.400 5.759,386.400 6.353 C 386.400 6.770,386.757 7.200,387.200 7.316 C 387.640 7.431,388.000 7.812,388.000 8.163 C 388.000 8.533,388.335 8.800,388.800 8.800 C 389.333 8.800,389.600 9.067,389.600 9.600 C 389.600 10.133,389.867 10.400,390.400 10.400 C 390.917 10.400,391.200 10.667,391.200 11.153 C 391.200 11.570,391.557 12.000,392.000 12.116 C 392.440 12.231,392.800 12.612,392.800 12.963 C 392.800 13.333,393.135 13.600,393.600 13.600 C 394.248 13.600,394.400 13.867,394.400 15.000 C 394.400 16.133,394.552 16.400,395.200 16.400 C 395.822 16.400,396.000 16.667,396.000 17.600 C 396.000 18.789,396.858 19.277,397.402 18.396 C 397.753 17.829,397.222 16.339,396.768 16.620 C 396.381 16.859,396.233 16.559,395.826 14.700 C 395.693 14.095,395.318 13.600,394.992 13.600 C 394.667 13.600,394.400 13.240,394.400 12.800 C 394.400 12.084,393.984 11.813,393.100 11.953 C 392.935 11.979,392.800 11.640,392.800 11.200 C 392.800 10.667,392.533 10.400,392.000 10.400 C 391.467 10.400,391.200 10.133,391.200 9.600 C 391.200 9.067,390.933 8.800,390.400 8.800 C 389.867 8.800,389.600 8.533,389.600 8.000 C 389.600 7.467,389.333 7.200,388.800 7.200 C 388.335 7.200,388.000 6.933,388.000 6.563 C 388.000 6.212,387.646 5.833,387.213 5.719 C 386.781 5.606,386.324 5.190,386.198 4.794 C 386.042 4.304,385.645 4.109,384.953 4.185 C 384.209 4.267,383.820 4.042,383.504 3.349 C 382.947 2.127,381.200 2.014,381.200 3.200 M1.067 19.867 C 0.920 20.013,0.800 20.733,0.800 21.467 C 0.800 23.000,2.145 23.418,2.516 22.000 C 2.942 20.372,1.979 18.954,1.067 19.867 M397.600 21.171 C 397.600 22.549,397.727 22.800,398.424 22.800 C 399.532 22.800,399.416 19.886,398.300 19.674 C 397.726 19.565,397.600 19.835,397.600 21.171 M0.000 26.200 C 0.000 28.167,0.615 28.664,0.865 26.900 C 1.064 25.499,0.847 24.400,0.371 24.400 C 0.167 24.400,0.000 25.210,0.000 26.200 M399.200 26.200 C 399.200 27.190,399.380 28.000,399.600 28.000 C 399.820 28.000,400.000 27.190,400.000 26.200 C 400.000 25.210,399.820 24.400,399.600 24.400 C 399.380 24.400,399.200 25.210,399.200 26.200 M271.800 27.760 C 264.328 29.438,259.790 39.229,263.613 45.423 C 264.913 47.529,267.172 50.000,267.798 50.000 C 268.075 50.000,268.522 50.265,268.791 50.589 C 269.060 50.914,269.937 51.289,270.740 51.423 C 271.543 51.557,272.781 51.845,273.492 52.062 C 274.948 52.507,280.286 51.470,281.002 50.603 C 281.222 50.335,281.762 49.994,282.202 49.845 C 283.115 49.534,285.070 47.001,286.414 44.385 C 288.130 41.049,287.560 35.652,285.174 32.644 C 281.577 28.106,277.266 26.532,271.800 27.760 M0.000 80.000 C 0.000 80.266,66.933 80.400,200.000 80.400 C 333.067 80.400,400.000 80.266,400.000 80.000 C 400.000 79.734,333.067 79.600,200.000 79.600 C 66.933 79.600,0.000 79.734,0.000 80.000 M188.600 115.073 C 182.686 115.726,183.036 114.201,182.800 140.333 C 182.572 165.558,182.958 163.302,178.792 163.738 C 177.465 163.876,175.853 164.262,175.210 164.595 C 174.566 164.928,173.401 165.200,172.620 165.200 L 171.200 165.200 171.197 159.700 C 171.190 148.758,170.855 148.200,164.308 148.200 C 160.446 148.200,160.405 148.210,159.108 149.507 L 157.800 150.814 157.679 159.517 L 157.558 168.221 154.818 169.111 C 153.310 169.600,151.543 170.000,150.891 170.000 C 150.238 170.000,148.577 170.360,147.200 170.800 C 145.823 171.240,144.044 171.601,143.248 171.602 C 142.452 171.604,141.281 171.876,140.647 172.206 C 137.021 174.097,135.302 172.883,136.989 169.622 C 137.312 168.996,137.700 167.700,137.851 166.742 C 138.002 165.784,138.358 164.640,138.642 164.200 C 138.927 163.760,139.287 162.590,139.442 161.600 C 139.598 160.610,139.958 159.440,140.242 159.000 C 140.527 158.560,140.887 157.390,141.042 156.400 C 141.198 155.410,141.546 154.240,141.815 153.800 C 142.085 153.360,142.421 152.222,142.562 151.272 C 142.703 150.321,143.067 149.151,143.371 148.672 C 143.675 148.192,144.053 146.994,144.212 146.009 C 144.371 145.024,144.731 143.854,145.012 143.409 C 145.293 142.964,145.649 141.820,145.802 140.867 C 145.956 139.914,146.332 138.654,146.638 138.067 C 146.944 137.480,147.202 136.550,147.211 136.000 C 147.220 135.450,147.575 134.280,148.000 133.400 C 148.425 132.520,148.785 131.350,148.800 130.800 C 148.815 130.250,149.175 129.080,149.600 128.200 C 151.662 123.931,150.084 119.182,146.400 118.571 C 145.630 118.443,144.485 118.175,143.856 117.975 C 141.025 117.075,137.225 119.608,137.186 122.422 C 137.179 122.960,136.825 124.120,136.400 125.000 C 135.975 125.880,135.621 127.145,135.614 127.811 C 135.606 128.477,135.345 129.386,135.033 129.831 C 134.721 130.277,134.346 131.352,134.198 132.220 C 134.051 133.089,133.586 134.836,133.165 136.102 C 132.744 137.367,132.400 138.812,132.400 139.313 C 132.400 139.813,132.147 140.583,131.837 141.025 C 131.528 141.467,131.142 142.722,130.979 143.814 C 130.816 144.906,130.453 146.160,130.172 146.600 C 129.892 147.040,129.532 148.300,129.372 149.400 C 129.213 150.500,128.859 151.760,128.585 152.200 C 128.311 152.640,127.962 153.885,127.809 154.967 C 127.656 156.048,127.294 157.308,127.004 157.767 C 126.714 158.225,126.347 159.410,126.188 160.400 C 126.030 161.390,125.652 162.555,125.350 162.989 C 125.047 163.423,124.799 164.413,124.798 165.189 C 124.796 165.965,124.513 167.140,124.169 167.800 C 123.824 168.460,123.373 169.894,123.165 170.986 C 122.538 174.288,121.421 176.149,119.576 176.963 C 118.680 177.358,117.905 177.618,117.852 177.540 C 117.262 176.669,116.304 173.725,116.004 171.858 C 115.798 170.570,115.452 169.304,115.237 169.044 C 115.021 168.785,114.662 167.436,114.438 166.046 C 114.215 164.657,113.854 163.306,113.637 163.045 C 113.420 162.783,113.043 161.323,112.800 159.800 C 112.557 158.277,112.210 156.844,112.029 156.615 C 111.849 156.387,111.504 155.055,111.263 153.656 C 111.022 152.256,110.656 150.906,110.450 150.656 C 110.244 150.405,109.942 149.300,109.780 148.200 C 109.011 142.973,106.278 141.081,100.481 141.762 C 97.275 142.139,95.643 144.034,95.038 148.082 C 94.883 149.118,94.513 150.468,94.216 151.082 C 93.918 151.697,93.546 153.186,93.388 154.390 C 93.229 155.595,92.873 156.945,92.596 157.390 C 92.319 157.836,91.971 159.176,91.823 160.369 C 91.675 161.562,91.373 162.877,91.151 163.291 C 90.930 163.705,90.579 165.095,90.372 166.380 C 90.165 167.665,89.728 169.230,89.400 169.858 C 89.073 170.486,88.804 171.546,88.802 172.214 C 88.801 172.881,88.440 174.452,88.000 175.704 C 87.560 176.956,87.200 178.545,87.200 179.236 C 87.200 180.623,85.666 183.688,85.135 183.360 C 84.951 183.246,84.800 182.576,84.800 181.870 C 84.800 181.165,84.440 179.916,84.000 179.096 C 83.560 178.275,83.199 177.017,83.198 176.301 C 83.196 175.586,82.924 174.481,82.594 173.847 C 82.263 173.213,81.879 171.953,81.740 171.047 C 81.601 170.141,81.153 168.732,80.744 167.916 C 80.335 167.100,79.999 165.930,79.998 165.316 C 79.996 164.702,79.737 163.706,79.422 163.102 C 79.107 162.498,78.729 161.148,78.581 160.102 C 78.434 159.056,78.067 157.808,77.766 157.328 C 77.465 156.849,77.103 155.679,76.962 154.728 C 76.821 153.778,76.472 152.625,76.187 152.167 C 75.902 151.708,75.540 150.448,75.383 149.367 C 75.225 148.285,74.873 146.950,74.600 146.400 C 74.327 145.850,73.983 144.569,73.836 143.554 C 73.688 142.539,73.310 141.369,72.996 140.954 C 72.682 140.539,72.412 139.750,72.395 139.200 C 72.379 138.650,72.088 137.480,71.749 136.600 C 71.410 135.720,70.962 134.032,70.753 132.848 C 70.544 131.665,70.109 130.319,69.786 129.859 C 69.464 129.399,69.196 128.477,69.191 127.811 C 69.186 127.145,68.826 125.815,68.391 124.856 C 67.956 123.897,67.600 122.737,67.600 122.278 C 67.600 120.013,63.267 116.769,61.610 117.794 C 61.419 117.912,60.343 118.183,59.220 118.396 C 54.628 119.267,52.789 123.796,55.200 128.296 C 55.640 129.116,56.006 130.241,56.014 130.794 C 56.021 131.347,56.375 132.520,56.800 133.400 C 57.225 134.280,57.579 135.414,57.586 135.920 C 57.594 136.426,57.849 137.326,58.154 137.920 C 58.459 138.514,58.921 140.032,59.181 141.293 C 59.441 142.554,59.806 143.680,59.992 143.795 C 60.178 143.910,60.453 144.768,60.604 145.702 C 60.754 146.636,61.114 147.775,61.404 148.233 C 61.694 148.692,62.056 149.952,62.209 151.033 C 62.362 152.115,62.709 153.360,62.981 153.800 C 63.252 154.240,63.597 155.378,63.747 156.328 C 63.896 157.279,64.267 158.449,64.571 158.928 C 64.875 159.408,65.243 160.548,65.390 161.463 C 65.538 162.378,65.909 163.458,66.216 163.863 C 66.523 164.268,66.780 165.233,66.787 166.006 C 66.794 166.779,67.133 168.039,67.539 168.806 C 67.946 169.573,68.396 170.950,68.539 171.866 C 68.682 172.783,69.052 174.043,69.361 174.666 C 69.670 175.290,70.121 176.565,70.362 177.500 C 71.420 181.605,71.754 182.714,72.488 184.552 C 73.134 186.171,73.176 186.587,72.734 186.987 C 71.950 187.696,68.133 188.800,66.454 188.802 C 65.654 188.804,64.465 189.084,63.812 189.425 C 63.158 189.765,61.429 190.194,59.969 190.377 C 58.509 190.561,56.965 190.898,56.537 191.126 C 56.110 191.355,54.600 191.669,53.180 191.824 C 51.761 191.980,50.150 192.334,49.600 192.612 C 49.049 192.890,47.519 193.246,46.200 193.404 C 44.880 193.561,43.260 193.932,42.600 194.228 C 41.940 194.523,40.230 194.940,38.800 195.154 C 31.864 196.190,29.646 198.969,32.937 202.500 C 34.132 203.782,36.015 203.936,38.600 202.962 C 39.480 202.631,41.439 202.191,42.954 201.984 C 44.469 201.777,45.947 201.410,46.239 201.167 C 46.532 200.925,48.166 200.553,49.871 200.341 C 51.576 200.130,53.178 199.784,53.431 199.574 C 53.685 199.364,55.131 199.023,56.646 198.816 C 58.161 198.609,60.120 198.169,61.000 197.838 C 61.880 197.506,63.293 197.227,64.140 197.218 C 64.986 197.208,66.246 196.946,66.940 196.635 C 68.096 196.118,73.378 195.200,75.203 195.200 C 75.824 195.200,76.023 195.584,76.237 197.193 C 76.382 198.289,76.748 199.391,77.051 199.642 C 77.353 199.893,77.600 200.337,77.600 200.628 C 77.600 201.633,79.625 203.341,81.710 204.093 C 86.985 205.997,93.304 203.813,94.212 199.773 C 94.356 199.128,94.707 198.060,94.992 197.400 C 95.276 196.740,95.627 195.300,95.772 194.200 C 96.223 190.784,97.009 189.728,99.331 189.420 C 100.428 189.275,101.792 188.915,102.363 188.621 C 104.782 187.374,107.305 187.647,107.709 189.200 C 107.909 189.970,108.219 190.780,108.398 191.000 C 108.576 191.220,108.849 192.480,109.004 193.800 C 109.158 195.120,109.508 196.560,109.782 197.000 C 110.056 197.440,110.412 198.512,110.573 199.382 C 111.121 202.334,113.499 204.056,118.225 204.925 C 121.204 205.472,127.200 202.684,127.200 200.751 C 127.200 200.526,127.459 200.084,127.776 199.767 C 128.093 199.450,128.478 198.338,128.631 197.295 C 128.785 196.253,129.155 195.045,129.455 194.611 C 129.755 194.177,130.000 193.274,130.000 192.605 C 130.000 191.936,130.333 190.761,130.739 189.994 C 131.146 189.227,131.596 187.850,131.739 186.934 C 131.882 186.017,132.260 184.757,132.579 184.134 C 132.898 183.510,133.243 182.710,133.345 182.357 C 133.461 181.958,134.185 181.609,135.246 181.439 C 136.189 181.288,137.170 180.991,137.426 180.778 C 137.682 180.566,139.151 180.234,140.689 180.040 C 142.227 179.847,143.827 179.507,144.243 179.285 C 144.659 179.063,146.080 178.752,147.400 178.595 C 148.720 178.438,150.340 178.061,151.000 177.758 C 151.660 177.454,153.370 177.159,154.800 177.103 L 157.400 177.000 157.400 195.800 L 157.400 214.600 156.438 216.000 C 155.181 217.830,154.446 218.400,153.345 218.400 C 145.838 218.400,144.552 229.207,151.945 230.162 C 159.497 231.138,165.033 228.329,168.028 222.000 C 168.704 220.570,169.637 218.680,170.099 217.800 C 170.915 216.247,170.945 215.583,171.124 195.087 L 171.308 173.973 172.233 173.246 C 172.768 172.825,174.181 172.411,175.589 172.264 C 176.926 172.125,178.568 171.727,179.237 171.381 C 179.906 171.035,180.936 170.808,181.527 170.876 L 182.600 171.000 182.705 185.455 C 182.794 197.673,182.902 199.987,183.405 200.404 C 183.732 200.676,184.000 201.133,184.000 201.420 C 184.000 202.341,185.916 203.486,187.886 203.743 C 191.845 204.259,196.000 202.727,196.000 200.751 C 196.000 200.364,196.180 199.936,196.400 199.800 C 196.642 199.651,196.804 196.753,196.809 192.476 C 196.819 184.385,196.534 185.151,200.985 181.244 C 204.650 178.027,204.176 177.894,207.594 183.100 C 208.785 184.915,209.904 186.400,210.080 186.400 C 210.256 186.400,210.400 186.600,210.400 186.844 C 210.400 187.462,212.860 191.200,213.267 191.200 C 213.450 191.200,213.600 191.384,213.600 191.609 C 213.600 192.165,215.671 195.323,216.296 195.720 C 216.573 195.896,216.800 196.202,216.800 196.400 C 216.800 196.598,217.385 197.595,218.100 198.615 C 218.815 199.636,219.600 200.821,219.844 201.250 C 221.928 204.906,224.558 205.864,227.789 204.144 C 232.263 201.763,233.246 198.124,230.525 194.018 C 230.008 193.238,229.364 192.255,229.093 191.834 C 228.822 191.413,228.285 190.738,227.900 190.334 C 227.515 189.930,227.200 189.420,227.200 189.200 C 227.200 188.980,226.885 188.482,226.500 188.093 C 225.737 187.323,224.987 186.243,222.460 182.275 C 221.944 181.464,221.359 180.800,221.160 180.800 C 220.962 180.800,220.800 180.628,220.800 180.418 C 220.800 179.997,219.135 177.347,218.275 176.400 C 217.975 176.070,217.616 175.485,217.478 175.100 C 217.339 174.715,217.039 174.400,216.813 174.400 C 216.586 174.400,216.400 174.144,216.400 173.831 C 216.400 173.518,215.981 172.753,215.468 172.131 C 213.935 170.270,213.877 169.656,215.122 168.469 C 218.286 165.451,221.347 162.800,221.666 162.800 C 221.863 162.800,222.124 162.541,222.246 162.225 C 222.382 161.869,223.334 161.544,224.733 161.374 C 225.980 161.222,227.450 160.870,228.000 160.590 C 228.551 160.311,230.081 159.955,231.400 159.800 C 232.720 159.644,234.323 159.266,234.961 158.958 C 237.159 157.902,239.576 158.211,240.064 159.612 C 240.898 162.005,242.602 162.399,252.175 162.411 C 262.441 162.424,267.994 162.888,268.490 163.775 C 268.682 164.119,269.064 164.400,269.339 164.400 C 270.366 164.400,273.259 167.821,274.413 170.400 C 275.104 171.945,274.772 184.472,274.016 185.382 C 273.694 185.769,273.244 186.390,273.016 186.762 C 271.373 189.436,270.948 189.995,270.554 189.997 C 270.309 189.999,269.655 190.357,269.101 190.792 C 267.104 192.363,256.503 192.536,254.825 191.026 C 254.481 190.716,253.705 190.339,253.100 190.188 C 252.495 190.037,252.000 189.672,252.000 189.377 C 252.000 189.081,251.753 188.696,251.451 188.520 C 250.536 187.987,249.160 184.728,248.920 182.527 C 248.535 178.997,246.940 177.836,242.241 177.664 L 238.524 177.527 237.021 178.904 L 235.518 180.281 235.550 184.491 C 235.580 188.378,235.799 189.596,236.756 191.200 C 236.953 191.530,237.312 192.250,237.554 192.800 C 238.401 194.725,241.474 198.195,243.577 199.600 C 244.071 199.930,245.033 200.605,245.715 201.100 C 246.397 201.595,247.235 202.001,247.578 202.003 C 247.920 202.004,248.740 202.363,249.400 202.800 C 250.060 203.237,251.091 203.596,251.692 203.597 C 252.292 203.599,253.552 203.913,254.492 204.296 C 256.603 205.156,266.039 205.293,267.482 204.485 C 267.966 204.214,269.496 203.880,270.882 203.745 C 272.267 203.609,273.961 203.161,274.647 202.749 C 275.333 202.337,276.156 202.000,276.475 202.000 C 277.572 202.000,283.179 197.445,283.193 196.543 C 283.197 196.291,283.455 195.988,283.766 195.868 C 284.957 195.411,287.529 189.694,288.014 186.422 C 288.228 184.980,288.578 183.080,288.792 182.200 C 289.300 180.110,289.290 175.029,288.774 173.000 C 288.550 172.120,288.212 170.279,288.023 168.909 C 287.688 166.478,286.365 163.132,285.321 162.071 C 285.034 161.781,284.800 161.336,284.800 161.083 C 284.800 160.486,280.364 156.000,279.775 156.000 C 279.527 156.000,278.998 155.640,278.600 155.200 C 278.202 154.760,277.676 154.400,277.432 154.400 C 277.188 154.400,276.316 154.040,275.496 153.600 C 274.675 153.160,273.597 152.798,273.101 152.795 C 271.455 152.785,270.400 152.318,270.400 151.600 C 270.400 150.833,271.469 150.414,273.448 150.405 C 274.134 150.402,275.823 150.040,277.200 149.600 C 278.577 149.160,280.356 148.799,281.152 148.798 C 281.948 148.796,283.107 148.531,283.726 148.208 C 284.345 147.885,285.785 147.512,286.926 147.378 C 288.067 147.245,289.540 146.948,290.200 146.718 C 291.729 146.186,297.735 145.233,298.000 145.481 C 298.110 145.584,298.200 158.037,298.200 173.155 L 298.200 200.642 299.358 202.021 C 301.199 204.212,302.547 204.345,323.240 204.374 C 342.250 204.401,343.457 204.307,344.892 202.681 C 346.669 200.666,346.389 195.128,344.409 193.147 L 343.062 191.800 327.731 191.682 L 312.400 191.564 312.400 166.831 C 312.400 147.522,312.510 142.011,312.900 141.703 C 313.175 141.487,314.451 141.191,315.734 141.047 C 317.018 140.903,318.584 140.518,319.215 140.192 C 319.845 139.867,321.044 139.592,321.880 139.582 C 322.716 139.573,324.120 139.285,325.000 138.943 C 325.880 138.601,327.950 138.143,329.600 137.925 C 331.250 137.708,332.818 137.350,333.084 137.129 C 333.350 136.909,334.834 136.570,336.382 136.376 C 337.930 136.181,339.728 135.747,340.378 135.411 C 341.028 135.075,342.297 134.800,343.197 134.800 C 345.520 134.800,348.563 133.290,349.415 131.715 C 351.182 128.448,346.891 125.114,343.280 126.949 C 342.686 127.251,341.120 127.627,339.800 127.785 C 338.480 127.942,336.860 128.308,336.200 128.598 C 335.540 128.887,333.870 129.229,332.490 129.357 C 331.109 129.485,329.489 129.837,328.890 130.139 C 328.290 130.442,326.749 130.807,325.466 130.952 C 324.182 131.097,322.652 131.457,322.066 131.752 C 321.479 132.047,319.913 132.397,318.585 132.529 C 317.256 132.662,315.493 133.052,314.667 133.398 C 312.503 134.302,312.401 134.081,312.394 128.476 C 312.386 121.559,311.282 118.424,308.838 118.382 C 308.267 118.372,307.260 118.130,306.600 117.844 C 305.610 117.414,305.129 117.417,303.850 117.862 C 302.997 118.158,301.893 118.400,301.397 118.400 C 298.992 118.400,298.428 120.345,298.309 129.044 L 298.200 136.965 296.627 137.291 C 295.762 137.471,294.271 137.884,293.313 138.209 C 292.356 138.534,290.903 138.801,290.086 138.802 C 289.269 138.804,288.065 139.084,287.412 139.425 C 286.758 139.765,285.029 140.194,283.569 140.377 C 282.109 140.561,280.573 140.890,280.157 141.110 C 279.741 141.329,278.230 141.636,276.800 141.792 C 275.370 141.948,273.835 142.306,273.390 142.588 C 272.944 142.870,271.414 143.231,269.990 143.391 C 268.565 143.551,266.860 143.923,266.200 144.217 C 265.540 144.512,263.920 144.877,262.600 145.028 C 261.280 145.178,259.750 145.524,259.200 145.796 C 257.975 146.401,253.909 146.838,253.257 146.435 C 252.895 146.212,252.880 145.000,253.194 141.371 C 253.421 138.747,253.651 135.160,253.704 133.400 L 253.800 130.200 267.400 130.000 C 282.411 129.779,282.026 129.847,283.723 127.130 C 284.810 125.390,284.907 121.623,283.893 120.503 C 283.512 120.082,283.200 119.530,283.200 119.277 C 283.200 117.437,280.919 117.200,263.200 117.200 C 241.274 117.200,242.321 116.725,241.597 127.000 C 241.380 130.080,241.035 133.590,240.830 134.800 C 240.626 136.010,240.445 138.729,240.429 140.841 C 240.362 149.661,239.569 151.166,234.956 151.218 C 234.100 151.227,232.680 151.495,231.800 151.812 C 229.586 152.609,229.239 152.554,228.774 151.331 C 228.083 149.515,224.960 147.200,223.200 147.200 C 221.499 147.200,219.201 148.788,214.613 153.135 C 211.260 156.311,209.703 157.177,206.800 157.481 C 205.590 157.607,204.125 157.950,203.544 158.243 C 202.962 158.536,201.252 158.826,199.744 158.888 L 197.000 159.000 196.788 139.200 C 196.527 114.725,196.822 115.877,190.600 115.047 C 190.160 114.989,189.260 115.000,188.600 115.073 M193.140 116.679 C 193.943 117.053,194.732 117.548,194.894 117.779 C 195.056 118.011,195.208 127.290,195.234 138.400 C 195.290 162.888,195.042 161.577,199.367 160.270 C 200.485 159.932,202.390 159.459,203.600 159.218 C 209.522 158.041,210.981 157.658,211.118 157.247 C 211.200 157.001,211.477 156.795,211.733 156.789 C 211.990 156.783,212.935 156.108,213.833 155.289 C 221.258 148.516,221.895 148.125,224.419 148.805 C 226.028 149.238,227.342 150.460,227.963 152.100 C 228.452 153.391,231.201 153.654,233.651 152.644 C 234.393 152.339,235.965 151.959,237.144 151.801 C 240.227 151.387,240.672 150.774,240.972 146.539 C 241.110 144.593,241.407 141.650,241.632 140.000 C 241.858 138.350,242.210 133.834,242.415 129.964 C 242.826 122.206,243.562 119.424,245.317 118.986 C 246.444 118.705,281.861 118.927,282.150 119.217 C 283.040 120.107,283.507 124.020,282.950 125.917 C 282.130 128.717,281.650 128.800,266.214 128.800 L 253.583 128.800 253.237 129.700 C 252.709 131.077,251.595 141.409,251.598 144.913 C 251.600 148.593,251.853 148.818,254.931 147.875 C 256.069 147.527,257.990 147.064,259.200 146.848 C 260.410 146.632,262.255 146.262,263.300 146.027 C 264.345 145.792,266.055 145.407,267.100 145.171 C 268.145 144.935,269.900 144.554,271.000 144.323 C 272.100 144.092,274.155 143.565,275.567 143.152 C 276.979 142.738,278.638 142.400,279.253 142.400 C 279.869 142.400,281.156 142.134,282.114 141.809 C 283.072 141.483,285.040 141.049,286.487 140.845 C 287.934 140.640,289.465 140.286,289.890 140.059 C 290.314 139.832,291.638 139.521,292.831 139.367 C 299.312 138.535,299.586 138.134,299.594 129.487 C 299.603 119.337,299.840 118.946,305.921 119.050 C 310.655 119.131,310.800 119.381,310.800 127.421 C 310.800 135.519,311.340 136.013,317.800 133.825 C 318.680 133.526,320.480 133.100,321.800 132.876 C 323.120 132.652,324.920 132.288,325.800 132.066 C 330.740 130.822,333.243 130.267,335.321 129.954 C 336.598 129.762,337.967 129.432,338.364 129.219 C 339.720 128.493,346.347 127.847,347.420 128.336 C 348.426 128.795,348.791 130.765,348.078 131.887 C 347.706 132.473,343.371 133.834,340.607 134.232 C 339.510 134.390,338.070 134.740,337.407 135.011 C 336.743 135.282,335.152 135.630,333.871 135.784 C 332.591 135.938,330.971 136.300,330.271 136.588 C 329.572 136.876,328.010 137.237,326.800 137.392 C 325.590 137.546,323.790 137.915,322.800 138.212 C 321.810 138.510,320.100 138.929,319.000 139.145 C 317.900 139.361,316.280 139.729,315.400 139.962 C 314.520 140.196,313.299 140.485,312.686 140.605 C 310.800 140.973,310.775 141.338,310.891 167.282 C 310.997 190.890,311.025 191.683,311.776 192.232 C 312.413 192.698,315.174 192.800,327.129 192.800 C 341.108 192.800,341.760 192.833,343.027 193.617 C 345.388 195.076,345.898 199.335,344.026 201.963 L 343.146 203.200 323.473 203.198 C 301.182 203.195,301.114 203.188,299.990 200.678 C 299.278 199.087,299.255 197.784,299.486 171.799 L 299.727 144.586 298.690 144.114 C 297.839 143.726,297.258 143.781,295.437 144.421 C 294.218 144.849,292.772 145.200,292.225 145.200 C 291.323 145.200,286.732 146.178,282.600 147.250 C 281.720 147.478,279.693 147.915,278.095 148.221 C 276.497 148.527,274.859 148.955,274.453 149.171 C 274.048 149.388,272.507 149.690,271.028 149.841 C 269.209 150.028,267.891 150.421,266.952 151.058 C 266.189 151.576,265.392 152.000,265.182 152.000 C 264.972 152.000,264.800 152.169,264.800 152.375 C 264.800 152.740,265.753 152.914,270.444 153.408 C 276.137 154.006,282.677 158.565,285.067 163.600 C 287.381 168.477,287.329 168.203,287.504 176.400 C 287.693 185.286,287.326 187.419,284.684 192.800 C 283.718 194.768,279.406 199.362,277.927 199.999 C 277.417 200.218,276.730 200.566,276.400 200.771 C 273.729 202.430,270.632 203.115,262.351 203.881 C 255.460 204.518,246.797 201.495,242.038 196.794 C 239.392 194.180,237.600 191.659,237.600 190.552 C 237.600 190.227,237.325 189.429,236.990 188.780 C 234.438 183.845,236.948 178.400,241.775 178.400 C 246.037 178.400,247.588 179.840,248.314 184.474 C 249.706 193.349,265.269 196.834,272.222 189.828 C 274.827 187.203,276.995 179.032,276.083 175.271 C 275.833 174.242,275.509 172.500,275.362 171.400 C 274.751 166.820,271.036 163.029,266.155 162.004 C 264.860 161.732,259.030 161.382,253.200 161.226 C 241.603 160.914,241.368 160.874,240.987 159.143 C 240.522 157.023,239.063 156.968,231.100 158.770 C 230.055 159.007,228.435 159.366,227.500 159.569 C 222.347 160.688,220.230 161.988,214.513 167.548 L 212.426 169.578 215.638 174.289 C 217.405 176.880,219.925 180.530,221.238 182.400 C 222.551 184.270,224.431 186.970,225.416 188.400 C 228.014 192.170,229.924 194.888,230.605 195.781 C 233.197 199.184,227.331 205.473,223.446 203.457 C 222.442 202.937,220.627 200.785,218.978 198.162 C 217.654 196.055,215.645 193.020,215.296 192.600 C 214.944 192.175,211.675 187.397,211.000 186.320 C 210.780 185.969,210.051 184.898,209.381 183.941 C 208.711 182.983,208.041 181.885,207.894 181.500 C 207.746 181.115,207.439 180.800,207.213 180.800 C 206.986 180.800,206.800 180.555,206.800 180.255 C 206.800 179.524,204.842 177.600,204.098 177.600 C 203.436 177.600,201.800 178.936,198.100 182.500 L 195.600 184.908 195.600 191.804 C 195.600 201.874,195.041 202.914,189.593 202.966 C 184.226 203.017,184.000 202.292,184.000 185.054 C 184.000 168.183,184.426 169.242,178.200 170.645 C 176.660 170.992,174.500 171.435,173.401 171.630 C 170.249 172.187,170.400 171.212,170.397 190.976 C 170.393 212.458,170.079 215.738,167.549 220.701 C 167.137 221.508,166.800 222.393,166.800 222.668 C 166.800 223.413,162.137 227.874,161.100 228.121 C 160.605 228.239,159.480 228.612,158.600 228.950 C 153.941 230.741,148.812 229.204,148.179 225.826 C 147.520 222.317,149.501 220.303,154.911 218.980 C 155.521 218.830,156.223 218.324,156.470 217.854 C 156.718 217.384,157.099 216.883,157.317 216.741 C 158.156 216.194,158.353 211.997,158.376 194.143 C 158.403 173.383,158.618 174.687,155.347 175.797 C 154.371 176.129,153.069 176.400,152.453 176.400 C 151.838 176.400,150.179 176.738,148.767 177.152 C 145.990 177.965,143.485 178.527,138.800 179.388 C 133.264 180.405,131.778 181.611,131.039 185.683 C 130.891 186.499,130.508 187.669,130.188 188.283 C 129.867 188.897,129.604 189.760,129.603 190.200 C 129.601 190.640,129.217 192.170,128.748 193.600 C 126.294 201.093,125.400 202.609,123.200 203.011 C 122.430 203.152,121.219 203.445,120.508 203.662 C 116.795 204.796,111.200 201.618,111.200 198.376 C 111.200 197.768,110.851 196.310,110.424 195.136 C 109.997 193.961,109.538 192.158,109.404 191.129 C 109.129 189.024,107.612 186.517,106.761 186.761 C 106.452 186.850,104.940 187.137,103.400 187.400 C 96.826 188.524,95.802 189.160,95.183 192.507 C 94.950 193.768,94.499 195.423,94.180 196.187 C 93.861 196.950,93.600 197.966,93.600 198.445 C 93.600 200.144,91.534 202.777,90.000 203.033 C 89.230 203.162,88.014 203.446,87.298 203.665 C 84.437 204.540,78.533 202.241,78.399 200.200 C 78.385 199.980,78.025 199.080,77.600 198.200 C 77.175 197.320,76.821 196.208,76.814 195.729 C 76.781 193.627,75.594 193.290,71.967 194.352 C 69.376 195.111,67.567 195.513,61.886 196.594 C 60.173 196.920,58.449 197.360,58.055 197.571 C 57.661 197.782,56.362 198.066,55.169 198.204 C 53.976 198.341,52.280 198.707,51.400 199.018 C 50.520 199.328,48.603 199.750,47.141 199.955 C 45.678 200.160,44.148 200.504,43.741 200.718 C 43.333 200.932,42.010 201.235,40.800 201.389 C 39.590 201.544,37.801 201.934,36.824 202.257 C 33.964 203.199,32.061 201.195,33.135 198.372 C 33.533 197.324,35.692 196.694,47.000 194.323 C 48.100 194.092,50.155 193.565,51.567 193.152 C 52.979 192.738,54.638 192.400,55.253 192.400 C 55.869 192.400,57.143 192.139,58.086 191.821 C 59.029 191.503,61.041 191.045,62.558 190.804 C 64.075 190.563,65.605 190.212,65.958 190.023 C 66.311 189.834,67.500 189.557,68.600 189.407 C 73.705 188.713,75.515 185.883,72.888 182.704 C 72.659 182.427,72.340 181.480,72.180 180.600 C 72.019 179.720,71.702 178.550,71.474 178.000 C 71.246 177.450,70.844 176.100,70.580 175.000 C 70.316 173.900,69.904 172.460,69.666 171.800 C 68.992 169.934,68.014 166.797,67.421 164.600 C 66.889 162.627,66.738 162.148,65.412 158.200 C 65.042 157.100,64.584 155.464,64.394 154.564 C 64.204 153.664,63.788 152.314,63.470 151.564 C 63.152 150.814,62.691 149.435,62.446 148.500 C 62.201 147.565,61.801 146.035,61.557 145.100 C 61.314 144.165,60.868 142.860,60.566 142.200 C 60.265 141.540,59.825 140.107,59.589 139.016 C 59.352 137.925,59.009 136.845,58.825 136.616 C 58.641 136.387,58.363 135.390,58.207 134.400 C 58.051 133.410,57.693 132.236,57.412 131.791 C 57.131 131.346,56.771 130.176,56.612 129.191 C 56.453 128.206,56.070 127.001,55.762 126.514 C 54.489 124.506,55.019 121.725,56.900 120.536 C 61.585 117.575,66.749 118.925,66.818 123.128 C 66.827 123.717,67.108 124.920,67.442 125.800 C 67.776 126.680,68.275 128.300,68.552 129.400 C 68.829 130.500,69.268 131.793,69.528 132.274 C 69.788 132.754,69.997 133.474,69.994 133.874 C 69.988 134.595,71.088 138.547,72.255 142.000 C 72.589 142.990,73.036 144.648,73.247 145.683 C 73.458 146.719,73.892 148.069,74.213 148.683 C 74.533 149.298,74.802 150.340,74.811 151.000 C 74.820 151.660,75.175 152.920,75.600 153.800 C 76.025 154.680,76.380 155.850,76.389 156.400 C 76.398 156.950,76.676 157.919,77.006 158.553 C 77.337 159.187,77.720 160.447,77.859 161.353 C 77.997 162.259,78.296 163.360,78.524 163.800 C 78.752 164.240,79.164 165.590,79.439 166.800 C 79.714 168.010,80.215 169.720,80.552 170.600 C 80.889 171.480,81.173 172.655,81.182 173.211 C 81.192 173.767,81.455 174.586,81.767 175.031 C 82.079 175.477,82.457 176.552,82.607 177.420 C 82.994 179.665,84.828 185.200,85.184 185.200 C 86.126 185.200,87.600 183.138,87.600 181.821 C 87.600 181.041,87.947 179.367,88.371 178.102 C 88.795 176.836,89.264 175.020,89.412 174.067 C 89.560 173.114,89.932 171.854,90.238 171.267 C 90.544 170.680,90.796 169.728,90.798 169.152 C 90.799 168.576,91.160 166.977,91.600 165.600 C 92.040 164.223,92.400 162.760,92.400 162.349 C 92.400 161.939,92.743 160.567,93.163 159.302 C 93.583 158.036,94.031 156.259,94.160 155.353 C 94.288 154.447,94.663 153.187,94.994 152.553 C 95.324 151.919,95.596 150.901,95.598 150.290 C 95.607 146.011,98.158 142.783,101.735 142.523 C 106.136 142.204,108.256 144.333,109.167 149.986 C 109.388 151.358,109.745 152.693,109.962 152.954 C 110.178 153.214,110.538 154.564,110.762 155.954 C 110.985 157.343,111.352 158.701,111.576 158.971 C 111.800 159.241,112.156 160.676,112.366 162.159 C 112.576 163.641,112.922 165.067,113.136 165.327 C 113.350 165.587,113.653 166.700,113.809 167.800 C 113.964 168.900,114.331 170.340,114.624 171.000 C 114.917 171.660,115.348 173.277,115.582 174.592 C 116.155 177.819,116.959 178.587,119.379 178.224 C 121.394 177.922,123.606 175.620,123.594 173.840 C 123.589 173.047,124.287 170.475,125.996 165.000 C 126.407 163.680,126.864 162.003,127.010 161.273 C 127.156 160.543,127.527 159.463,127.835 158.873 C 128.143 158.283,128.396 157.453,128.398 157.028 C 128.399 156.604,128.768 155.074,129.219 153.628 C 129.669 152.183,130.403 149.740,130.850 148.200 C 131.297 146.660,131.948 144.500,132.297 143.400 C 132.646 142.300,133.069 140.680,133.236 139.800 C 133.517 138.315,134.235 135.899,135.254 133.000 C 135.487 132.340,135.898 130.810,136.169 129.600 C 136.440 128.390,136.850 127.040,137.080 126.600 C 137.310 126.160,137.623 124.940,137.775 123.888 C 138.366 119.815,140.394 118.355,144.400 119.118 C 148.892 119.974,151.027 123.378,149.038 126.514 C 148.730 127.001,148.349 128.210,148.193 129.200 C 148.037 130.190,147.736 131.215,147.524 131.478 C 147.312 131.742,146.891 132.912,146.589 134.078 C 145.107 139.807,144.731 141.076,144.239 142.000 C 143.947 142.550,143.589 143.778,143.445 144.728 C 143.300 145.679,142.935 146.849,142.634 147.328 C 142.333 147.808,141.967 149.051,141.820 150.091 C 141.674 151.131,141.400 152.076,141.212 152.193 C 141.024 152.309,140.744 153.168,140.590 154.102 C 140.437 155.036,139.971 156.555,139.556 157.478 C 139.140 158.401,138.800 159.544,138.800 160.018 C 138.800 160.491,138.543 161.446,138.230 162.140 C 137.916 162.833,137.480 164.210,137.260 165.200 C 137.040 166.190,136.594 167.720,136.268 168.600 C 135.943 169.480,135.545 171.081,135.384 172.157 L 135.092 174.114 138.039 173.824 C 139.659 173.664,141.584 173.283,142.316 172.977 C 143.048 172.672,144.581 172.312,145.723 172.179 C 146.865 172.045,148.340 171.751,149.000 171.524 C 149.660 171.297,151.608 170.874,153.328 170.584 C 158.512 169.708,158.228 170.250,158.556 160.608 C 158.916 150.051,159.545 148.800,164.490 148.800 C 169.461 148.800,170.316 150.398,170.376 159.800 C 170.396 162.880,170.544 165.600,170.706 165.845 C 171.077 166.407,175.459 165.909,177.950 165.023 C 178.913 164.680,180.198 164.400,180.806 164.400 C 181.414 164.400,182.336 164.056,182.856 163.636 L 183.800 162.871 184.002 140.736 C 184.113 128.561,184.351 118.301,184.531 117.936 C 185.430 116.109,190.365 115.389,193.140 116.679 M161.362 121.451 C 160.087 121.738,157.721 124.416,157.274 126.079 C 155.611 132.262,162.885 137.118,168.513 133.583 C 169.566 132.923,170.590 131.953,170.789 131.430 C 170.988 130.906,171.342 130.360,171.575 130.215 C 172.244 129.802,172.104 125.784,171.400 125.200 C 171.070 124.926,170.800 124.499,170.800 124.251 C 170.800 122.347,165.013 120.631,161.362 121.451 M168.462 123.322 C 173.818 127.407,169.118 135.433,162.575 133.375 C 156.864 131.578,156.393 124.900,161.800 122.380 C 163.368 121.649,166.929 122.153,168.462 123.322 M197.467 166.494 C 194.949 167.584,194.305 171.168,196.742 170.531 C 198.009 170.200,201.734 166.419,201.016 166.194 C 200.677 166.087,200.163 165.928,199.873 165.840 C 199.582 165.753,198.500 166.047,197.467 166.494 M101.602 166.994 C 101.381 167.576,101.194 168.355,101.186 168.726 C 101.178 169.097,100.914 169.850,100.600 170.400 C 100.286 170.950,100.022 171.989,100.014 172.710 C 100.006 173.430,99.640 175.044,99.200 176.296 C 98.356 178.698,98.130 182.186,98.793 182.595 C 99.009 182.729,100.044 182.569,101.093 182.240 C 102.142 181.911,103.720 181.497,104.600 181.321 C 106.607 180.918,106.867 179.568,105.626 175.985 C 105.172 174.671,104.792 173.193,104.781 172.698 C 104.753 171.318,102.978 166.259,102.462 166.087 C 102.211 166.004,101.824 166.411,101.602 166.994 M102.800 168.714 C 102.800 169.326,103.160 170.852,103.600 172.104 C 104.040 173.356,104.401 174.970,104.402 175.690 C 104.404 176.411,104.666 177.501,104.985 178.112 C 106.027 180.110,105.508 180.540,101.500 180.996 C 99.258 181.251,98.018 179.978,99.572 179.017 C 99.777 178.891,100.060 177.755,100.201 176.494 C 100.342 175.232,100.804 173.357,101.229 172.326 C 101.653 171.295,102.000 169.810,102.000 169.026 C 102.000 168.242,102.180 167.600,102.400 167.600 C 102.620 167.600,102.800 168.101,102.800 168.714 M198.400 168.000 C 198.400 168.220,198.029 168.400,197.576 168.400 C 197.123 168.400,196.864 168.220,197.000 168.000 C 197.136 167.780,197.507 167.600,197.824 167.600 C 198.141 167.600,198.400 167.780,198.400 168.000 M118.978 184.835 C 118.566 185.502,119.493 186.267,120.045 185.715 C 120.507 185.253,120.218 184.400,119.600 184.400 C 119.406 184.400,119.126 184.596,118.978 184.835 M52.650 333.825 C 51.060 334.407,49.600 335.742,49.600 336.612 C 49.600 336.882,49.330 337.326,49.000 337.600 C 48.639 337.900,48.400 338.775,48.400 339.800 C 48.400 340.825,48.639 341.700,49.000 342.000 C 49.330 342.274,49.600 342.702,49.600 342.950 C 49.600 343.199,50.171 343.942,50.870 344.601 L 52.140 345.800 85.786 345.800 L 119.432 345.800 120.659 344.800 C 124.874 341.365,123.892 335.347,118.840 333.655 C 116.633 332.916,54.697 333.074,52.650 333.825 M120.594 335.800 C 122.438 337.655,122.385 341.797,120.492 343.691 L 119.185 345.000 86.092 345.000 L 53.000 345.000 51.735 344.051 C 48.713 341.783,49.545 335.357,52.950 334.671 C 53.417 334.577,68.560 334.522,86.600 334.550 L 119.400 334.600 120.594 335.800 M342.239 381.494 C 342.071 381.662,318.864 381.930,290.667 382.088 C 262.470 382.246,214.200 382.542,183.400 382.745 C 152.600 382.948,100.670 383.250,68.001 383.416 C 14.464 383.688,8.556 383.781,8.138 384.352 C 7.516 385.204,7.727 386.811,8.541 387.406 C 8.903 387.671,9.200 388.183,9.200 388.544 C 9.200 388.905,9.441 389.200,9.736 389.200 C 10.030 389.200,10.477 389.650,10.727 390.200 C 10.978 390.750,11.374 391.200,11.609 391.200 C 11.853 391.200,11.985 391.820,11.917 392.658 C 11.835 393.684,11.978 394.167,12.400 394.288 C 12.893 394.430,12.901 394.392,12.449 394.075 C 11.792 393.616,12.190 392.800,13.070 392.800 C 13.496 392.800,13.627 393.053,13.484 393.600 C 13.318 394.236,13.472 394.400,14.237 394.400 C 14.933 394.400,15.200 394.622,15.200 395.200 C 15.200 395.976,15.740 396.199,17.300 396.068 C 18.090 396.002,18.239 396.605,17.538 397.038 C 17.233 397.227,17.186 397.146,17.400 396.800 C 17.614 396.454,17.567 396.373,17.262 396.562 C 16.213 397.210,16.941 397.600,19.200 397.600 C 20.520 397.600,21.579 397.735,21.553 397.900 C 21.379 399.000,21.724 399.200,23.800 399.200 C 25.010 399.200,26.000 399.380,26.000 399.600 C 26.000 399.866,84.467 400.000,200.600 400.000 C 316.733 400.000,375.200 399.866,375.200 399.600 C 375.200 399.380,375.808 399.200,376.550 399.200 C 378.722 399.200,380.400 398.742,380.400 398.150 C 380.400 397.785,380.884 397.600,381.837 397.600 C 382.938 397.600,383.324 397.413,383.484 396.800 C 383.623 396.270,384.030 396.000,384.689 396.000 C 385.421 396.000,385.623 395.837,385.450 395.385 C 385.199 394.731,385.876 394.320,387.335 394.241 C 387.999 394.205,388.197 393.944,388.186 393.119 C 388.175 392.271,388.284 392.137,388.703 392.485 C 389.094 392.810,389.361 392.789,389.717 392.404 C 390.036 392.059,390.045 391.970,389.742 392.139 C 389.490 392.280,389.177 392.117,389.046 391.777 C 388.903 391.403,388.975 391.261,389.230 391.418 C 389.461 391.561,390.041 391.346,390.518 390.939 C 391.367 390.216,391.373 390.217,390.793 390.965 C 390.268 391.642,390.269 391.707,390.800 391.531 C 391.212 391.395,391.391 390.811,391.372 389.666 C 391.350 388.312,391.481 388.000,392.072 388.000 C 392.546 388.000,392.800 387.705,392.800 387.157 C 392.800 386.450,392.967 386.355,393.832 386.572 C 394.694 386.789,394.829 386.714,394.651 386.116 C 394.047 384.088,393.972 383.264,394.368 383.020 C 394.957 382.656,394.914 381.762,394.300 381.606 C 393.179 381.320,342.522 381.212,342.239 381.494 M395.300 384.940 C 394.854 385.920,395.280 386.853,395.893 386.240 C 396.025 386.108,395.901 386.000,395.618 386.000 C 395.210 386.000,395.204 385.877,395.589 385.413 C 395.857 385.091,396.007 384.620,395.923 384.368 C 395.839 384.116,395.558 384.373,395.300 384.940 " stroke="none" fill="#94add1" fill-rule="evenodd"></path><path id="path4" d="M313.155 28.141 C 302.868 30.008,300.014 44.154,308.734 50.051 C 320.701 58.144,334.113 43.659,325.323 32.135 C 323.871 30.231,321.253 28.574,319.173 28.244 C 318.198 28.089,317.040 27.894,316.600 27.811 C 316.160 27.729,314.610 27.877,313.155 28.141 " stroke="none" fill="#f7c436" fill-rule="evenodd"></path></g></svg>